<svg xmlns="http://www.w3.org/2000/svg" width="596.214" height="249.12"><g data-name="Group 19621"><path data-name="Path 44506" d="M26.689 247.912s-50-59.8-3.249-105.991c29.332-28.977 39.2-8.428 56.788-53.981 23.534-60.939 113.184-93.054 184.048-27.853 47.007 43.25 62.187 54.15 85.26 44.082 26.46-11.545 38.085-46.3 79.5-38.947 47.871 8.493 41.461 59.983 76.736 51.017 68.025-17.29 118.424 81.491 71.4 132.354z" fill="#e9f3fe"/><g data-name="Group 15959"><path data-name="Path 44507" d="M408.542 147.389a100.592 100.592 0 01-192.566 40.72 99.589 99.589 0 01-5.123-14.465 100.593 100.593 0 0197.114-126.833q3.837 0 7.6.285a100.719 100.719 0 0177.4 46.515 100.1 100.1 0 0115.575 53.778z" fill="#8fc2fd"/><path data-name="Path 44508" d="M408.542 147.388a101 101 0 01-1.629 18.118c-4.094-.593-9.425-1.172-12.716-.785-5.929.7-11.858 12.9-24.064 13.384s-27.2-8.85-43.246-2.572-24.413-.349-27.2-4.883 6.975-15 6.091-19.53 1.233-19.879 14.834-19.879 19.879-6.975 21.623-10.114 12.206-.7 17.787-6.626-4.185-16.392 0-23.367 24.763-8.67 24.763-8.67a100.176 100.176 0 0123.757 64.924z" opacity=".14"/><path data-name="Path 44509" d="M260.274 130.294c-4.883 6.876 1.744 21.175-2.441 28.5s-12.207 5.929-18.135 9.417c-5.148 3.027-7.211 15.518-23.721 19.9a101.067 101.067 0 01-6.253-62.356 30.726 30.726 0 0114.28-8.114c19.879-5.231 24.826-6.436 32.751-5.151 5.993.969 8.402 10.927 3.519 17.804z" opacity=".14"/><path data-name="Path 44510" d="M321.952 96.005s-12.207-2.441-18.833 1.744-20.054 11.684-18.31 16.043 14.474 7.673 19.7 7.5 20.577-8.021 27.029-7.5 2.778-17.378-9.586-17.787z" opacity=".14"/><path data-name="Path 44511" d="M277.171 212.028c-5.336 3.892-6.608 15.853-10.021 17.509-1.713.832-4.349 3.826-6.547 6.6a100.991 100.991 0 01-34.8-30.73c6.037-4.19 17.358-11.267 25.212-11.46 0 0 3.925-.046 6.834-8.019a37.7 37.7 0 013.8-8.029c2.19-3.228 4.836-4.823 8.347-3.564a6.066 6.066 0 013.161 2.444c2.031 3.025 2.158 7.83 7.879 12.462 7.723 6.254 1.472 18.896-3.865 22.787z" opacity=".14"/></g><g data-name="Group 15964"><g data-name="Group 15960" fill="#1c468a"><path data-name="Rectangle 2244" d="M215.883 205.703h1.96v41.846h-1.96z"/><path data-name="Path 44512" d="M215.05 204.245a1.817 1.817 0 111.813 1.926 1.872 1.872 0 01-1.813-1.926z"/><path data-name="Rectangle 2245" d="M215.05 246.976h3.528v.989h-3.528z"/><path data-name="Rectangle 2246" d="M215.394 205.371h2.964v.801h-2.964z"/></g><path data-name="Path 44513" d="M129.708 217.122c-11.174 0-23.151-.293-35.921-.971-32.76-1.739-55.487-5.246-55.712-5.281l.335-2.423c.225.035 22.865 3.527 55.521 5.26 30.124 1.6 75.174 1.983 118.727-5.258l.357 2.42c-18.527 3.079-46.547 6.253-83.307 6.253z" fill="#9ca6ba"/><path data-name="Path 44514" d="M310.935 217.122c-11.174 0-23.151-.293-35.922-.971-32.76-1.739-55.487-5.246-55.712-5.281l.335-2.423c.225.035 22.865 3.527 55.521 5.26 30.124 1.6 75.174 1.983 118.727-5.258l.357 2.42c-18.522 3.079-46.542 6.253-83.306 6.253z" fill="#9ca6ba"/><path data-name="Path 44515" d="M492.064 217.122c-11.175 0-23.151-.293-35.921-.971-32.76-1.739-55.487-5.246-55.712-5.281l.335-2.423c.225.035 22.865 3.527 55.521 5.26 30.124 1.6 75.174 1.983 118.728-5.258l.356 2.42c-18.522 3.079-46.542 6.253-83.307 6.253z" fill="#9ca6ba"/><g data-name="Group 15961" fill="#1c468a"><path data-name="Rectangle 2247" d="M34.808 205.703h1.96v41.846h-1.96z"/><path data-name="Path 44516" d="M33.975 204.245a1.817 1.817 0 111.813 1.926 1.872 1.872 0 01-1.813-1.926z"/><path data-name="Rectangle 2248" d="M33.975 246.976h3.529v.989h-3.529z"/><path data-name="Rectangle 2249" d="M34.319 205.371h2.964v.801h-2.964z"/></g><path data-name="Path 44517" d="M42.379 208.8l-.466 2.889-4.148-.72.515-2.812z" fill="#1c468a"/><path data-name="Path 44518" d="M40.162 209.059a1.11 1.11 0 00-.61-.44.051.051 0 00-.028-.008h-.007c-.026-.005-.046-.013-.069-.015l-1.212-.2-.714-.117a1.033 1.033 0 00-.755.168.494.494 0 00-.061.046 1.154 1.154 0 00-.432.757 1.183 1.183 0 00.493 1.156 1.047 1.047 0 00.422.17l.63.1.272.043 1.024.165a.956.956 0 00.168.018 1.122 1.122 0 001.08-.988 1.213 1.213 0 00-.201-.855zm-.053.82a.845.845 0 01-.953.744l-1.026-.17-.262-.043-.64-.1a.833.833 0 01-.46-.249.914.914 0 01-.241-.765.9.9 0 01.241-.5.961.961 0 01.092-.084.792.792 0 01.62-.163l.706.114.183.033 1.039.168a.806.806 0 01.546.353.923.923 0 01.155.662z" fill="#1c468a"/><path data-name="Path 44519" d="M210.709 211.467l-.36-2.906 4.163-.615.291 2.849z" fill="#1c468a"/><path data-name="Path 44520" d="M216.412 209.115a1.14 1.14 0 00-.529-.831 1.016 1.016 0 00-.711-.147l-.63.1-1.3.2a1.53 1.53 0 00-.165.041 1.081 1.081 0 00-.386.229 1.193 1.193 0 00-.371 1.052 1.168 1.168 0 00.434.762.746.746 0 00.224.135 1.011 1.011 0 00.582.079l1.214-.193.714-.112a1.028 1.028 0 00.391-.145 1.091 1.091 0 00.328-.312 1.2 1.2 0 00.205-.858zm-.407.7a.915.915 0 01-.122.137.787.787 0 01-.427.213l-.706.111-1.222.2a.787.787 0 01-.6-.155c-.008-.005-.015-.007-.02-.016a.883.883 0 01-.333-.582.913.913 0 01.168-.671.822.822 0 01.538-.335l1.288-.206.64-.1a.783.783 0 01.673.216.878.878 0 01.277.533.93.93 0 01-.153.653z" fill="#1c468a"/><g data-name="Group 15962" fill="#1c468a"><path data-name="Rectangle 2250" d="M397.114 205.703h1.96v41.846h-1.96z"/><path data-name="Path 44521" d="M396.281 204.245a1.817 1.817 0 111.813 1.926 1.872 1.872 0 01-1.813-1.926z"/><path data-name="Rectangle 2251" d="M396.281 246.976h3.528v.989h-3.528z"/><path data-name="Rectangle 2252" d="M396.625 205.371h2.964v.801h-2.964z"/></g><path data-name="Path 44522" d="M223.609 208.8l-.466 2.889-4.148-.72.516-2.812z" fill="#1c468a"/><path data-name="Path 44523" d="M221.393 209.059a1.109 1.109 0 00-.61-.44.051.051 0 00-.028-.008h-.008c-.025-.005-.046-.013-.068-.015l-1.212-.2-.714-.117a1.032 1.032 0 00-.754.168.474.474 0 00-.061.046 1.154 1.154 0 00-.432.757 1.183 1.183 0 00.493 1.156 1.045 1.045 0 00.422.17l.63.1.272.043 1.024.165a.955.955 0 00.167.018 1.121 1.121 0 001.08-.988 1.214 1.214 0 00-.201-.855zm-.053.82a.845.845 0 01-.953.744l-1.026-.17-.262-.043-.64-.1a.832.832 0 01-.46-.249.913.913 0 01-.242-.765.9.9 0 01.242-.5.963.963 0 01.091-.084.791.791 0 01.62-.163l.707.114.183.033 1.039.168a.8.8 0 01.546.353.922.922 0 01.154.662z" fill="#1c468a"/><path data-name="Path 44524" d="M391.94 211.467l-.36-2.906 4.163-.615.291 2.849z" fill="#1c468a"/><path data-name="Path 44525" d="M397.643 209.115a1.139 1.139 0 00-.528-.831 1.015 1.015 0 00-.711-.147l-.63.1-1.3.2a1.629 1.629 0 00-.165.041 1.076 1.076 0 00-.386.229 1.193 1.193 0 00-.371 1.052 1.167 1.167 0 00.435.762.744.744 0 00.223.135 1.01 1.01 0 00.582.079l1.214-.193.714-.112a1.026 1.026 0 00.391-.145 1.1 1.1 0 00.328-.312 1.2 1.2 0 00.204-.858zm-.406.7a.923.923 0 01-.122.137.787.787 0 01-.427.213l-.706.111-1.222.2a.786.786 0 01-.6-.155c-.008-.005-.015-.007-.02-.016a.886.886 0 01-.333-.582.914.914 0 01.168-.671.822.822 0 01.539-.335l1.288-.206.64-.1a.783.783 0 01.673.216.878.878 0 01.277.533.931.931 0 01-.155.653z" fill="#1c468a"/><g data-name="Group 15963" fill="#1c468a"><path data-name="Rectangle 2253" d="M578.243 205.703h1.96v41.846h-1.96z"/><path data-name="Path 44526" d="M577.41 204.245a1.817 1.817 0 111.813 1.926 1.872 1.872 0 01-1.813-1.926z"/><path data-name="Rectangle 2254" d="M577.41 246.976h3.528v.989h-3.528z"/><path data-name="Rectangle 2255" d="M577.754 205.371h2.964v.801h-2.964z"/></g><path data-name="Path 44527" d="M404.739 208.8l-.466 2.889-4.148-.72.515-2.812z" fill="#1c468a"/><path data-name="Path 44528" d="M402.522 209.059a1.11 1.11 0 00-.61-.44.051.051 0 00-.028-.008h-.008c-.026-.005-.046-.013-.069-.015l-1.211-.2-.714-.117a1.033 1.033 0 00-.755.168.5.5 0 00-.061.046 1.153 1.153 0 00-.432.757 1.183 1.183 0 00.493 1.156 1.047 1.047 0 00.422.17l.63.1.272.043 1.024.165a.957.957 0 00.168.018 1.122 1.122 0 001.079-.988 1.215 1.215 0 00-.2-.855zm-.053.82a.845.845 0 01-.953.744l-1.027-.17-.261-.043-.64-.1a.834.834 0 01-.46-.249.913.913 0 01-.241-.765.893.893 0 01.241-.5.95.95 0 01.092-.084.792.792 0 01.62-.163l.706.114.183.033 1.039.168a.805.805 0 01.546.353.922.922 0 01.155.662z" fill="#1c468a"/><path data-name="Path 44529" d="M573.069 211.467l-.36-2.906 4.163-.615.291 2.849z" fill="#1c468a"/><path data-name="Path 44530" d="M578.772 209.115a1.139 1.139 0 00-.528-.831 1.015 1.015 0 00-.711-.147l-.63.1-1.3.2a1.684 1.684 0 00-.165.041 1.083 1.083 0 00-.386.229 1.2 1.2 0 00-.371 1.052 1.168 1.168 0 00.435.762.743.743 0 00.223.135 1.011 1.011 0 00.582.079l1.214-.193.714-.112a1.027 1.027 0 00.391-.145 1.1 1.1 0 00.328-.312 1.2 1.2 0 00.204-.858zm-.406.7a.938.938 0 01-.122.137.788.788 0 01-.427.213l-.706.111-1.222.2a.787.787 0 01-.6-.155c-.007-.005-.015-.007-.02-.016a.881.881 0 01-.333-.582.913.913 0 01.168-.671.822.822 0 01.539-.335l1.288-.206.641-.1a.783.783 0 01.673.216.876.876 0 01.277.533.93.93 0 01-.156.653z" fill="#1c468a"/></g><g data-name="Group 15965" fill="#fcbf02"><path data-name="Path 44531" d="M195.543 81.602a44.457 44.457 0 00-25.98-2.455s16.751-1.144 26.684 9.488c0 0 6.946-10.652 18.429-13.095 0 0-8.557-1.017-19.133 6.062z"/><path data-name="Path 44532" d="M163.599 76.471a34.384 34.384 0 00-20.082-2.016s12.961-.809 20.595 7.458c0 0 5.42-8.207 14.312-10.044 0 0-6.614-.828-14.825 4.602z"/><path data-name="Path 44533" d="M135.4 72.584a31.3 31.3 0 00-18.344-1.06s11.758-1.231 19.018 5.991c0 0 4.614-7.674 12.631-9.687.002-.001-6.045-.499-13.305 4.756z"/><path data-name="Path 44534" d="M119.593 64.429a21.2 21.2 0 00-12.437.442s7.851-1.575 13.2 2.84c0 0 2.628-5.466 7.907-7.329.003 0-4.106.046-8.67 4.047z"/><path data-name="Path 44535" d="M176.183 44.376a21.2 21.2 0 00-12.443-.207s7.922-1.163 13.038 3.525c0 0 2.909-5.321 8.278-6.907 0-.001-4.106-.169-8.873 3.589z"/><path data-name="Path 44536" d="M203.737 63.692a30.887 30.887 0 00-18.014-2.051s11.651-.572 18.409 6.945c0 0 4.967-7.307 12.975-8.851.002.001-5.928-.821-13.37 3.957z"/><path data-name="Path 44537" d="M192.863 51.484a28.558 28.558 0 00-16.714-1.266s10.744-.935 17.25 5.774c0 0 4.334-6.924 11.679-8.63 0 .001-5.507-.551-12.215 4.122z"/></g><g data-name="Group 15966"><path data-name="Path 44538" d="M363.795 45.369c-9.761 0-17.674 8.51-17.674 19.005s17.674 27.272 17.674 27.272 17.673-16.776 17.673-27.272-7.911-19.005-17.673-19.005zm0 28.3a10.414 10.414 0 1110.414-10.414 10.4 10.4 0 01-10.414 10.419z" fill="#00438f"/></g><path data-name="Path 44564" d="M287.61 124.669a38.832 38.832 0 00-13.954-3.624 9.642 9.642 0 00-9.862 6.593q-.12.363-.229.754c-1.93 6.944-.877 27.963 5.616 33.447s18.428 3.17 18.428 3.17z" fill="#005dc7"/><path data-name="Path 44565" d="M305.514 173.658s-.7 8.689-1.515 19.134c-1.113 14.188-5.347 49.541-5.347 49.541s.9 1.409-3.46.491a89.559 89.559 0 01-6.449-25.893l-.052-.684c-1.032-14.1-2.636-43.792-2.636-43.792z" fill="#2b478b"/><path data-name="Path 44566" d="M305.751 170.656s-.934 11.691-1.753 22.136l-15.256 24.139-.052-.684c-1.032-14.1-2.636-43.792-2.636-43.792z" fill="#233862"/><path data-name="Path 44567" d="M302.349 168.456l-26.222 75.447s-2.742-.516-3.357-1.729c0 0-.754-31.907 3.688-39.6 2.51-4.35 3.788-16.543 3.963-20.67.518-12.267 1.82-15.59 1.82-15.59z" fill="#2b478b"/><g data-name="Group 15972" fill="#233862"><path data-name="Path 44568" d="M294.567 248.517h2.135c.715-.113 1.243-.32 1.976-.415a1.979 1.979 0 011.729.415l.02.021h9.069c.228-.326.009-1.08-.205-1.636a1.291 1.291 0 00-.849-.776 9.778 9.778 0 01-4.594-2.1c-.977-.883-4.717-3.246-4.717-3.246h-.02c-.082 0-.473.122-2.174 1.558-.88.741-2.378-1.047-2.378-1.047a2.128 2.128 0 00-.492.666 2.253 2.253 0 00-.195 1.392 9.023 9.023 0 01-.65 3.363c-.211.623-.389 1.064-.389 1.064s-.103.507 1.734.741z"/><path data-name="Path 44569" d="M294.571 248.543h2.126c.715-.113 1.248-.35 1.982-.446a1.98 1.98 0 011.729.415l.02.022h9.069c.229-.326.009-1.08-.205-1.636-.276-.245-.353 1.064-.505 1.272s-7.4.076-7.817-.228a4.375 4.375 0 00-3.424-.418c-1.523.364-3.767-.569-4.323-.817-.211.622-.389 1.064-.389 1.064s-.1.546 1.737.772z"/></g><g data-name="Group 15973" fill="#233862"><path data-name="Path 44570" d="M272.767 248.517h2.135c.715-.113 1.243-.32 1.977-.415a1.979 1.979 0 011.729.415l.02.021h9.069c.228-.326.009-1.08-.205-1.636a1.291 1.291 0 00-.849-.776 9.778 9.778 0 01-4.594-2.1c-.977-.883-4.717-3.246-4.717-3.246h-.02c-.082 0-.473.122-2.174 1.558-.88.741-2.378-1.047-2.378-1.047a2.129 2.129 0 00-.492.666 2.254 2.254 0 00-.195 1.392 9.028 9.028 0 01-.65 3.363c-.211.623-.39 1.064-.39 1.064s-.103.507 1.734.741z"/><path data-name="Path 44571" d="M272.771 248.543h2.126c.715-.113 1.248-.35 1.982-.446a1.98 1.98 0 011.729.415l.02.022h9.069c.228-.326.009-1.08-.205-1.636-.276-.245-.353 1.064-.505 1.272s-7.4.076-7.817-.228a4.374 4.374 0 00-3.424-.418c-1.523.364-3.768-.569-4.323-.817-.212.622-.39 1.064-.39 1.064s-.097.546 1.738.772z"/></g><path data-name="Path 44572" d="M286.232 123.459s8.5 4.182 13.409 2.632a11.779 11.779 0 00-3.316-2.7 52.1 52.1 0 00.292-1.95 30.551 30.551 0 00.282-3.3l-5.208-4.2-1.168-.941a14.841 14.841 0 01-.159 2.77l-.031.2a12.3 12.3 0 01-4.101 7.489z" fill="#ff8b7b"/><path data-name="Path 44573" d="M281.382 167.946c-.025.541 1.09 1.136 1.574 1.353a41.268 41.268 0 006.325 2.315 27.963 27.963 0 004.553.825c4.55.467 9.927-.558 11.772-.533a.8.8 0 00.516-.2c.123-.1.221-5.657.123-12.666 0-.27 0-.566-.024-.836v-.1a253.01 253.01 0 00-.247-8.46c-.27-6.3-.761-12.371-1.6-15.74-.983-3.958-4.7-8.916-7.174-10.274-2.091-1.149-8.963-2.352-9.307-2.106-4.033 3.013-6.256 11.927-6.218 22.048 0 .319 0 .641.008.962.018 1.045.056 2.1.116 3.165a135.608 135.608 0 01-.269 17.706c-.072 1.09-.131 1.949-.148 2.541z" fill="#fcbf02"/><path data-name="Path 44574" d="M290.291 115.887l.042.077c.329.589 2.574 4.385 6.283 5.473a30.557 30.557 0 00.283-3.3l-5.208-4.2a14.643 14.643 0 00-1.328 1.828z" opacity=".15"/><path data-name="Path 44575" d="M298.402 118.015s-8.112 1.348-8.873-3.717-2.321-8.3 2.826-9.376 6.446.706 7.111 2.335 1.027 10.278-1.064 10.758z" fill="#ff8b7b"/><path data-name="Path 44576" d="M291.013 112.994s-1.077-1.088-.457-1.774.979.359 1.469.326 1.371-1.469 1.436-2.774 4.776.687 6.669.067 3.553-3.151.593-4.515c-1.739-.8-10.433-4.93-13.733-.741-4.206 5.339 1.411 10.934 2.162 11.783s1.18.6 1.18.6 1.325-1.795.681-2.972z" fill="#263238"/><path data-name="Path 44577" d="M286.814 104.073a5.592 5.592 0 01.457-2.056 7.553 7.553 0 00.13 1.61c.153.544-.587.446-.587.446z" fill="#2c3a64"/><path data-name="Path 44578" d="M285.956 103.203s1.023.11 1.087.915l-.371.478a1.506 1.506 0 00-.716-1.393z" fill="#2c3a64"/><g data-name="Group 15974"><path data-name="Path 44579" d="M281.508 149.105l-.251-1.547a13.737 13.737 0 009.042-5.37 17.5 17.5 0 003.266-8.012c.746-5.546-.714-8.7-4.463-9.652-3.358-.85-7.238 1.774-7.277 1.8l-.888-1.291c.182-.125 4.5-3.054 8.549-2.029 3.16.8 6.7 3.422 5.631 11.38a18.923 18.923 0 01-3.571 8.75 15.256 15.256 0 01-10.038 5.971z" fill="#005dc7"/></g><path data-name="Path 44580" d="M296.305 158.341s1.072-.545 1.656-.807 1.724-.965 1.812-.468.555 1.461-.526 1.636a8.966 8.966 0 01-2.942-.361z" fill="#ffb27d"/><g data-name="Group 15975"><path data-name="Rectangle 2256" d="M303.121 154.688l-.273-.081a.945.945 0 01-.637-1.175.945.945 0 011.175-.637l.273.081a.945.945 0 01.637 1.175.945.945 0 01-1.175.637z" fill="#415da5"/><path data-name="Path 44581" d="M300.139 154.102l-2.624 8.836a1.138 1.138 0 00.765 1.411l3.353 1a1.138 1.138 0 001.411-.765l2.624-8.837a1.138 1.138 0 00-.765-1.41l-3.353-1a1.138 1.138 0 00-1.411.765z" fill="#cadeff"/><path data-name="Path 44582" d="M300.033 154.46l-2.518 8.478a1.138 1.138 0 00.765 1.411l3.353 1a1.138 1.138 0 001.411-.765l2.466-8.3a7.438 7.438 0 00-2.454-.453c-.8.048-2.305-.887-3.023-1.371z" fill="#86b1fc"/><path data-name="Rectangle 2257" fill="#415da5" d="M303.68 162.434l-5.531-1.643 1.645-5.54 5.531 1.642z"/></g><path data-name="Path 44583" d="M301.26 158.128c-1.505-.376-2.86.546-4.955.214 0 0-10.376-7.278-12.2-9.1-1.316-1.316 3.965-7.251 6.716-11.861a1.159 1.159 0 01-.418-.147c-2.1-1.247-6.328-3.509-9.817-3.867a1.135 1.135 0 01-.37-.1 58.039 58.039 0 00-5.233 17.389 2.453 2.453 0 00.839 2.123c2.558 2.211 9.573 6.127 18.006 8.554a11.763 11.763 0 003.681 1.605c1.808.338 2.555-.665 5.18.845 1.21.7 1.591-.786 1.442-1.554-.196-1.037-1.193-3.681-2.871-4.101z" fill="#ff8b7b"/><path data-name="Path 44584" d="M285.051 124.8a28.873 28.873 0 00-6.318 10.117s4.024 3.507 11.558 4.208c0 0 3.092-5.689.832-8.572a38.843 38.843 0 00-6.072-5.753z" fill="#fcbf02"/><g data-name="Group 15984"><g data-name="Group 15977" fill="#aa6550"><path data-name="Path 44585" d="M206.291 147.774s-.232 11 .307 14.208-.707 18.137-.707 18.137l-2.575-.323s-6.447-24.383-5.788-27.513 8.763-4.509 8.763-4.509z"/><g data-name="Group 15976"><path data-name="Path 44586" d="M205.892 180.121s.994 3.339.757 3.977a9.838 9.838 0 01-2.548 2.782c-1.044.811-.124-2.137.074-3.093s-1.339-1.025-1.1-2.508l.241-1.483z"/><path data-name="Path 44587" d="M203.076 181.274s.006 2.763-.023 3.309.544.049.624-.432a2.375 2.375 0 01.818-1.35c.243-.063-1.419-1.527-1.419-1.527z"/></g></g><path data-name="Path 44588" d="M187.292 222.524c.926 9.323 4.274 23.649 4.274 23.649l2.6-1.875s4.58-32.147 5.328-34.761a168.613 168.613 0 005.788-36.017l-15.2-4.486a20.759 20.759 0 00-2.386 11.74c1.596 21.153-1.509 30.582-.404 41.75z" fill="#263238"/><path data-name="Path 44589" d="M171.936 180.577a3.97 3.97 0 01-.841 2.045c-.179.228-.7.831-.9.617s.545-1.834.107-2.829c-.152-.354 1.634.167 1.634.167z" fill="#ffb27d"/><path data-name="Path 44590" d="M202.696 247.102a1.042 1.042 0 00-.686-.627 7.9 7.9 0 01-3.711-1.7c-.789-.713-3.811-2.622-3.811-2.622h-.016c-.066 0-.382.1-1.757 1.259-.711.6-1.921-.846-1.921-.846a1.722 1.722 0 00-.4.538 1.82 1.82 0 00-.157 1.125 7.3 7.3 0 01-.525 2.717c-.171.5-.315.859-.315.859s-.083.414 1.4.6h1.725c.578-.091 1-.258 1.6-.336a1.6 1.6 0 011.4.336l.016.017h7.327c.181-.261.004-.871-.169-1.32z" fill="#37598c"/><path data-name="Path 44591" d="M178.77 221.827c.926 9.323 4.073 23.955 4.073 23.955l2.3.741s5.084-35.07 5.831-37.684c5.2-18.168 6-39.738 6-39.738l-15.413-.764a20.76 20.76 0 00-2.386 11.74c1.596 21.153-1.514 30.582-.405 41.75z" fill="#455a64"/><path data-name="Path 44592" d="M194.01 247.102a1.042 1.042 0 00-.686-.627 7.9 7.9 0 01-3.711-1.7c-.789-.713-3.811-2.622-3.811-2.622h-.016c-.066 0-.382.1-1.757 1.259-.711.6-1.859-.883-1.859-.883a1.775 1.775 0 00-.617 1.7 7.294 7.294 0 01-.525 2.717c-.171.5-.315.859-.315.859s-.082.414 1.4.6h1.725c.578-.091 1-.258 1.6-.336a1.6 1.6 0 011.4.336l.016.017h7.327c.179-.261.002-.871-.171-1.32z" fill="#466aa5"/><g data-name="Group 15983"><path data-name="Path 44593" d="M143.689 244.775a2.591 2.591 0 01-1.418 3.437 2.725 2.725 0 01-3.538-1.377 2.591 2.591 0 011.418-3.437 2.725 2.725 0 013.538 1.377z" fill="#1c468a"/><path data-name="Path 44594" d="M163.023 244.772a2.591 2.591 0 01-1.417 3.437 2.726 2.726 0 01-3.538-1.377 2.591 2.591 0 011.418-3.437 2.725 2.725 0 013.537 1.377z" fill="#1c468a"/><path data-name="Path 44595" d="M138.115 244.451l3.833 1.337a3.559 3.559 0 001.209.2l21.747-.216 2.374-3.824z" fill="#739af0"/><g data-name="Group 15978"><path data-name="Path 44596" d="M150.467 202.216l6.075-14.669.008-.028c.037-.131.983-3.282 6.457-3.986h.025l4.5-.824c.582-.149 2.262-.4 3.032.232a1.438 1.438 0 01.423 1.34c-.113 1.23-4.156 10.742-6.845 16.835l.861.359c.691-1.565 6.755-15.343 6.918-17.113a2.293 2.293 0 00-.753-2.118c-1.258-1.029-3.608-.481-3.858-.419l-4.44.812c-5.894.763-7.1 4.227-7.219 4.625l-6.054 14.62z" fill="#263238"/></g><path data-name="Path 44597" d="M162.122 197.873l11.736 2.279s3.422 1.352 2.743 7.177c-.6 5.126-3.216 33.888-3.216 33.888s-.547 5.985-13.706 4.249z" fill="#2a83e8"/><path data-name="Path 44598" d="M168.628 205.785l-3.156 32.211a7.13 7.13 0 01-1.335 3.5 7.554 7.554 0 01-6.077 3.084l-10.884.066h-.269l-6.817.041a7.722 7.722 0 01-1.975-.242 7.002 7.002 0 01-.435-.125 7.407 7.407 0 01-4.848-4.921 7.046 7.046 0 01-.193-3.11l4.943-30.819a7.407 7.407 0 016.691-6.125l1.923-.179.458-.042.385-.035 6.427-.6.789-.073 6.2-.575a7.708 7.708 0 012.791.249c.057.016.115.033.172.051l.358.119a7.273 7.273 0 014.852 7.525z" fill="#b3caff"/><path data-name="Path 44599" d="M164.137 241.5a7.555 7.555 0 01-6.077 3.084l-10.884.066h-.269l-6.817.041a7.728 7.728 0 01-1.975-.242 7.002 7.002 0 01-.435-.125c-2.36-.76-5.08-3.535-5.119-6.479 0 0 23.025-.293 27.837.429a4.581 4.581 0 013.739 3.226z" fill="#2a83e8"/><g data-name="Group 15982"><g data-name="Group 15979"><path data-name="Path 44600" d="M147.04 199.094c-.048.029-5.1 3.017-5.76 5.642-.682 2.7-5.24 34.148-5.285 34.466a7.179 7.179 0 002.466 5.329l-.346-.081a7.002 7.002 0 01-.435-.125 6.428 6.428 0 01-2.092-5.177c.188-1.3 4.607-31.789 5.293-34.506.6-2.381 4.161-4.754 5.314-5.47l.458-.042z" fill="#263238"/></g><g data-name="Group 15980"><path data-name="Path 44601" d="M154.258 198.424a9.545 9.545 0 00-4.09 6.3c-.694 4.432-3.4 36.619-3.43 36.943v.024l-.007.021a3.5 3.5 0 00.723 2.934h-.542a3.363 3.363 0 01-.579-3.037c.084-1 2.744-32.552 3.433-36.948a9.888 9.888 0 013.707-6.17z" fill="#263238"/></g><g data-name="Group 15981"><path data-name="Path 44602" d="M163.778 198.268a8.494 8.494 0 00-1.973 1.584 8.982 8.982 0 00-2.224 4.694c-.694 4.429-2.842 36.51-2.864 36.832v.025l-.008.023a4.775 4.775 0 001.015 3.159h-.686a5.063 5.063 0 01-.728-3.26c.069-1.026 2.177-32.448 2.865-36.844a9.1 9.1 0 014.073-6.388c.057.016.115.033.172.051z" fill="#263238"/></g></g></g><path data-name="Path 44603" d="M205.498 176.631c-1.342 1.569-13.058 1.267-15.7.68q-2.714-.6-4.208-5.716c-.33 2.378-1.073 5.167-2.735 5.34-2.723.283-3.85-.187-4.177-1.22-.054-.168.5-7.357.979-14.588.332-4.984.629-9.992.669-12.727v-.919a41.7 41.7 0 00-6.01-.049 37.305 37.305 0 016.77-12.049c4.365-4.986 14.768-3.507 18.982-2.261 2.658.786 5.167 3.64 3.869 9.683-.762 3.556.325 9.262.76 17.673.422 8.085 1.091 15.816.801 16.153z" fill="#2a83e8"/><path data-name="Path 44604" d="M202.261 134.316s3.258 2.656 5.128 14.656c0 0-1.052 1.451-4.169 1.062s-.959-15.718-.959-15.718z" fill="#2a83e8"/><path data-name="Path 44605" d="M198.642 113.421s-7.557-8.582-11.271-2.852c0 0-2.854 1.278-3.762 6.223-.926 5.045 2.515 8.764 4.214 7.774 1.089-.635 1.98 1.277 1.98 1.277z" fill="#233862"/><path data-name="Path 44606" d="M188.145 109.656s-1.093-3.9-6.834-2.515c0 0 2.755-.425 3.543.619 0 0-2.219-.942-3.568-.064s-1.5 3.711-1.266 4.565 1.816 3.373 2.819 3.344a4.62 4.62 0 002.167-.942z" fill="#233862"/><path data-name="Path 44607" d="M189.254 131.815c-.155-.853.7-2.352.548-7.108l.37.062 6.22 1.052s.145 5.057.192 6.891c.038 1.529-7.448.461-7.33-.897z" fill="#aa6550"/><path data-name="Path 44608" d="M196.392 125.821s.055 1.833.1 3.667c-3.464 0-5.523-2.99-6.322-4.719z" opacity=".2"/><path data-name="Path 44609" d="M189.515 124.113a18.2 18.2 0 01-2.4-5.254c-.36-1.741.351-8.251 6.894-7.5a8.859 8.859 0 013.711 1.286c1.442.916 3.541 2.922 1.416 8.645l-.54 1.928z" fill="#233862"/><path data-name="Path 44610" d="M197.596 127.526s-8.185.363-8.333-4.737-1.3-8.489 3.916-8.937 6.292 1.469 6.756 3.16-.214 10.287-2.339 10.514z" fill="#aa6550"/><path data-name="Path 44611" d="M196.904 113.621s-2.076 6.047-5.492 7.028-4.935.1-4.935.1a9.749 9.749 0 003.027-5.846s5.629-4.083 7.4-1.282z" fill="#233862"/><path data-name="Path 44612" d="M196.362 114.123a7.233 7.233 0 012.156 2.577c.445 1.288.7 3.957 1.48 3.844 0 0 1.576-4.115-.387-6.363-2.081-2.384-3.249-.058-3.249-.058z" fill="#233862"/><path data-name="Path 44613" d="M196.68 114.317s-1.422 6.312-5.709 8.44c0 0 4.234-3.972 4.488-8.119s1.221-.321 1.221-.321z" fill="#233862"/><path data-name="Path 44614" d="M170.035 176.266s-2.047 2.383-2.268 3.622-.105 4.548.524 4.666c.672.127 1.069-2.17 1.286-2.62.731-1.521 2.169-.808 2.36-1.354a26.747 26.747 0 00.383-3.167z" fill="#aa6550"/><path data-name="Path 44615" d="M176.958 143.544s-5.531 10.781-5.843 15.3-1.08 17.424-1.08 17.424l2.285 1.147s4.74-17.013 5.03-19.587c.323-2.87 9.7-12.39 9.7-12.39z" fill="#aa6550"/><path data-name="Path 44616" d="M186.797 139.397h-8.259l-4.219 8.035s6.728 5.567 13.43 3.307-.952-11.342-.952-11.342z" fill="#2a83e8"/></g><path data-name="Path 44645" d="M595.636 249.12H.577a.579.579 0 01-.577-.577.579.579 0 01.577-.577h595.059a.579.579 0 01.577.577.579.579 0 01-.577.577z" fill="#2e3552"/><g data-name="Group 15999"><path data-name="Path 44646" d="M385.137 169.437s.471.546.743.877a2.882 2.882 0 01.429 1.812c-.176.214-1.286.526-1.324-.136s.152-2.553.152-2.553z" fill="#ffb27d"/><path data-name="Path 44647" d="M426.339 164.229s1.019 2.3 2.962 2.76c2.375.567 3.413 3.551 3.413 4.235s-3.037-1.54-4.235-1.583-1.84.569-2.653-1.02-1.84-3.13-1.84-3.13z" fill="#ffb27d"/><path data-name="Path 44648" d="M396 165.175a6.3 6.3 0 002.855-.629c10.271-5.1.736-40.134.736-40.134a3.723 3.723 0 00-2.352-2.424 26.2 26.2 0 00-4.184-.359c-6.142-.447-6.447 3.143-6.662 4.4-.233 1.275-5.118 39.074 9.607 39.146z" fill="#2b478b"/><path data-name="Path 44649" d="M398.858 164.546c10.271-5.1.736-40.134.736-40.134a4.348 4.348 0 00-2.353-2.424c-3.969 1.042-4.794 2.927-5.01 4.041-.199 1.185-4.401 33.633 6.627 38.517z" fill="#233862"/><g data-name="Group 15992"><path data-name="Path 44650" d="M406.434 242.82s-.571 4.567.457 5.08 13.3.342 13.3.342 0-1.541-2.112-1.884-5.823-1.6-6.45-4.4-5.195.862-5.195.862z" fill="#233862"/><path data-name="Path 44651" d="M417.531 173.089s-.694 8.653-1.509 19.054c-1.108 14.13-2.441 31.485-2.572 34.773-.228 5.709-1.142 14.842-1.142 14.842s-2.168 2.17-6.507 1.255a149.4 149.4 0 01-4.971-26.831l-.051-.682c-1.027-14.042-2.625-43.611-2.625-43.611z" fill="#455a64"/><path data-name="Path 44652" d="M417.531 173.089s-.694 8.653-1.509 19.054l-15.193 24.04-.051-.682c-1.027-14.042-2.625-43.611-2.625-43.611z" fill="#263238"/><path data-name="Path 44653" d="M414.363 174.116s-12.5 31.338-20.72 46.065-10.788 18.837-10.788 18.837-4.709-1.884-5.137-3.168c0 0 3.143-28.431 8.648-35.362 3.11-3.916 6.764-15.669 6.935-19.779s1.113-12.244 1.113-12.244z" fill="#455a64"/></g><path data-name="Path 44654" d="M411.252 128.277c-4.886 1.541-13.337-2.621-13.337-2.621a12.21 12.21 0 004.049-7.266 14.96 14.96 0 00.22-3.14l4.57 3.684 1.772 1.428s0 .484-.079 1.375-.215 2.207-.493 3.85a11.686 11.686 0 013.298 2.69z" fill="#ffb27d"/><path data-name="Path 44655" d="M426.397 167.04a3.973 3.973 0 001.307-1.586s-8.834-12.1-9.579-13.284-6.313-20.128-6.313-20.128l-14.08-2.852s11.753 24.247 13.7 27.2c3.218 4.885 13.324 11.545 13.324 11.545a5.055 5.055 0 001.641-.895z" fill="#bbc0cd"/><path data-name="Path 44656" d="M393.468 169.917c-.018.288.305.61.682.862a6.549 6.549 0 00.88.485q1.616.727 3.178 1.293a29.24 29.24 0 007.632 1.813 44.844 44.844 0 008.458-.233c1.365-.162 2.479-.288 3.161-.288h.09a.783.783 0 00.521-.2c.108-.072.2-4.346.144-10.092 0-.808-.018-1.634-.018-2.5a6.61 6.61 0 00-.036-.843v-.09a223.49 223.49 0 00-.234-8.367v-.054c-.269-6.267-.754-12.3-1.6-15.658-.764-3.1-3.831-6.584-6.1-8.862a8.992 8.992 0 00-3.7-2.24c-2.419-.755-6.159-1.768-6.939-1.091a8.038 8.038 0 00-1.616 1.76c-.036.017-.036.017-.036.036h-.018a14.069 14.069 0 00-1.113 1.94 23.342 23.342 0 00-1.437 3.9 53.921 53.921 0 00-1.616 14.186c0 1.347.036 2.711.126 4.094l.054 1.15c.161 3.43.144 6.609.054 9.392v.09a173.1 173.1 0 01-.377 6.986 90.239 90.239 0 00-.14 2.531z" fill="#bbc0cd"/><path data-name="Path 44657" d="M393.609 167.388a134.881 134.881 0 00.268-17.611 78.148 78.148 0 01-.125-4.107 192.48 192.48 0 013.037-6.994h4.212s3.089 21.094-7.392 28.712z" fill="#2c56b2"/><path data-name="Path 44658" d="M408.525 120.361s0 .484-.079 1.375a12.088 12.088 0 01-6.483-3.346l4.79.545z" fill="#e8945b"/><path data-name="Path 44659" d="M410.018 120.244s-8.069 1.341-8.826-3.7-2.309-8.258 2.811-9.326 6.412.7 7.073 2.323 1.022 10.225-1.058 10.703z" fill="#ffb27d"/><path data-name="Path 44660" d="M401.186 116.062s.828-.138.695-1.279-.132-2.631.8-2.353.974 1.02 1.355.587.388-2.26 3.147-2.387 3.881.833 5.164.269 1.351-2.506 1.351-2.506a2.207 2.207 0 01-.916.914s2.141-2.928-.337-4.935-5.005-.694-6.44-.607c-3.16.191-5.2.381-6.233 2.457s-.614 7.842 1.414 9.84z" fill="#2b478b"/><g data-name="Group 15998"><path data-name="Path 44661" d="M358.513 243.791a2.974 2.974 0 01-1.627 3.945 3.128 3.128 0 01-4.061-1.58 2.974 2.974 0 011.627-3.945 3.128 3.128 0 014.061 1.58z" fill="#1c468a"/><path data-name="Path 44662" d="M380.7 243.788a2.974 2.974 0 01-1.627 3.945 3.128 3.128 0 01-4.061-1.58 2.974 2.974 0 011.627-3.945 3.128 3.128 0 014.061 1.58z" fill="#1c468a"/><path data-name="Path 44663" d="M352.116 243.416l4.4 1.535a4.107 4.107 0 001.387.228l24.959-.248 2.725-4.389z" fill="#455a64"/><g data-name="Group 15993"><path data-name="Path 44664" d="M366.291 194.947l6.972-16.836.009-.032c.042-.151 1.128-3.766 7.41-4.575h.029l5.167-.946c.668-.171 2.6-.458 3.48.266a1.652 1.652 0 01.485 1.537c-.13 1.412-4.77 12.329-7.857 19.322l.988.412c.793-1.8 7.753-17.609 7.939-19.641a2.631 2.631 0 00-.865-2.431c-1.444-1.181-4.141-.552-4.428-.481l-5.1.932c-6.765.876-8.147 4.852-8.285 5.308l-6.948 16.779z" fill="#263238"/></g><path data-name="Path 44665" d="M379.669 189.962l13.469 2.616s3.928 1.552 3.149 8.238c-.686 5.883-3.691 38.894-3.691 38.894s-.627 6.869-15.73 4.877z" fill="#fcbf02"/><path data-name="Path 44666" d="M387.132 199.042l-3.622 36.968a8.183 8.183 0 01-1.532 4.022 8.67 8.67 0 01-6.975 3.54l-12.492.075h-.309l-7.824.047a8.871 8.871 0 01-2.267-.278q-.253-.065-.5-.144a8.5 8.5 0 01-5.564-5.647 8.091 8.091 0 01-.222-3.57l5.673-35.371a8.5 8.5 0 017.679-7.03l2.207-.205.526-.048.442-.041 7.376-.685.905-.084 7.117-.66a8.838 8.838 0 013.2.286c.066.019.132.037.2.059l.411.137a8.346 8.346 0 015.571 8.629z" fill="#ffd349"/><path data-name="Path 44667" d="M381.981 240.032a8.671 8.671 0 01-6.975 3.54l-12.492.075h-.309l-7.823.047a8.87 8.87 0 01-2.267-.278 8.423 8.423 0 01-.5-.144c-2.708-.873-5.83-4.058-5.875-7.437 0 0 26.426-.336 31.949.493 2.85.431 3.702 2.366 4.292 3.704z" fill="#fcbf02"/><g data-name="Group 15997"><g data-name="Group 15994"><path data-name="Path 44668" d="M362.359 191.363c-.055.033-5.849 3.462-6.61 6.476-.783 3.1-6.014 39.193-6.066 39.557a8.24 8.24 0 002.83 6.116l-.4-.093a9.245 9.245 0 01-.5-.143 7.377 7.377 0 01-2.4-5.942c.215-1.49 5.288-36.484 6.075-39.6.691-2.733 4.775-5.456 6.1-6.278l.526-.048z" fill="#263238"/></g><g data-name="Group 15995"><path data-name="Path 44669" d="M370.64 190.594a10.956 10.956 0 00-4.694 7.233c-.8 5.086-3.906 42.028-3.937 42.4v.027l-.008.025a4.016 4.016 0 00.83 3.367h-.623a3.86 3.86 0 01-.665-3.485c.1-1.142 3.15-37.361 3.94-42.406a11.35 11.35 0 014.254-7.081z" fill="#263238"/></g><g data-name="Group 15996"><path data-name="Path 44670" d="M381.57 190.416a9.734 9.734 0 00-2.265 1.817 10.31 10.31 0 00-2.552 5.388c-.8 5.084-3.262 41.9-3.287 42.272v.029l-.009.026a5.48 5.48 0 001.165 3.626h-.787a5.81 5.81 0 01-.836-3.742c.079-1.177 2.5-37.241 3.289-42.286a10.443 10.443 0 014.675-7.332c.066.019.132.037.2.058z" fill="#263238"/></g></g></g><path data-name="Path 44671" d="M387.063 164.282l-1.757 4.3a2.378 2.378 0 00-.061 1.6 3.952 3.952 0 01-2.01 4.851s-1.575.786-1.823-.434.033-.778-.358-2.492c-.342-1.5.433-2.426.94-3.463a4.549 4.549 0 00.385-1.439l.356-2.7z" fill="#ffb27d"/><path data-name="Path 44672" d="M383.294 169.076a13.8 13.8 0 003.161.176s4.5-13.911 5.083-15.181 13.375-15.394 13.375-15.394l-8.106-11.086s-11.065 19.947-12.471 23.2c-2.322 5.368-3.128 17.4-3.128 17.4a5.789 5.789 0 002.086.885z" fill="#bbc0cd"/><path data-name="Path 44673" d="M393.988 160.304v.09a14.326 14.326 0 005.944-3 22.5 22.5 0 006.626-10.254c2.083-6.123 2.245-12.7 1.185-15.928a5.514 5.514 0 00-.485-1.077 7.9 7.9 0 00-1.473-1.832 10.307 10.307 0 00-5.656-2.55 12.445 12.445 0 00-1.275-.108c-.5-.018-.826 0-.916 0h-.018c-1.044.293-1.847 1.024-1.114 1.94a8.1 8.1 0 01.916-.036 9.089 9.089 0 013.286.449 6.614 6.614 0 013.466 2.55c2.227 3.124 1.742 7.6 1.742 7.6a37.377 37.377 0 01-1.005 6.3 23.747 23.747 0 01-4.453 9.374 13.946 13.946 0 01-6.724 4.851 3.967 3.967 0 00-.118.848 2.373 2.373 0 00.072.783z" fill="#233862"/><path data-name="Path 44674" d="M425.982 168.903a3.8 3.8 0 001.357 1.278c.706.273 1.823 1.193 1.931.946s-.064-.674-.481-.973-.545-.674-.439-.9-2.368-.351-2.368-.351z" fill="#ffb27d"/></g><g data-name="Group 16000"><path data-name="Path 44675" d="M251.919 76.475c-10.472 0-18.96 9.13-18.96 20.389s18.96 29.257 18.96 29.257 18.96-18 18.96-29.257-8.488-20.389-18.96-20.389zm0 30.365a11.172 11.172 0 1111.172-11.172 11.154 11.154 0 01-11.172 11.172z" fill="#263238"/></g><g data-name="Group 16004"><g data-name="Group 16001"><path data-name="Path 44676" d="M258.018 74.275a.7.7 0 01-.7-.8c0-.02.07-.507.212-1.4a.701.701 0 111.385.221c-.14.877-.207 1.366-.208 1.371a.7.7 0 01-.689.608z" fill="#fcbf02"/></g><g data-name="Group 16002"><path data-name="Path 44677" d="M258.705 70.077a.708.708 0 01-.125-.011.7.7 0 01-.566-.814c.165-.921.344-1.871.53-2.823a.702.702 0 111.377.27c-.185.945-.362 1.887-.526 2.8a.7.7 0 01-.69.578zm1.1-5.615a.711.711 0 01-.146-.015.7.7 0 01-.541-.831c.2-.929.4-1.872.613-2.8a.701.701 0 011.368.31c-.209.924-.414 1.861-.609 2.783a.7.7 0 01-.686.553zm1.262-5.576a.715.715 0 01-.165-.02.7.7 0 01-.517-.846c.224-.928.457-1.864.693-2.783a.702.702 0 011.359.349c-.234.912-.466 1.842-.688 2.763a.7.7 0 01-.686.537zm1.422-5.535a.7.7 0 01-.677-.886c.253-.925.514-1.854.776-2.761a.701.701 0 111.347.39c-.26.9-.52 1.822-.77 2.74a.7.7 0 01-.677.517zm1.59-5.487a.7.7 0 01-.67-.908c.282-.917.573-1.837.866-2.735a.701.701 0 111.333.435c-.29.89-.579 1.8-.859 2.711a.7.7 0 01-.671.495zm1.772-5.43a.7.7 0 01-.663-.931c.315-.91.64-1.819.965-2.7a.701.701 0 111.316.485c-.322.874-.644 1.775-.956 2.677a.7.7 0 01-.662.469zm83.055-1.668a.7.7 0 01-.638-.409c-.386-.842-.8-1.7-1.218-2.564a.701.701 0 011.259-.619c.428.871.844 1.745 1.235 2.6a.7.7 0 01-.637.994zm-81.081-3.691a.7.7 0 01-.653-.957c.351-.894.712-1.788 1.075-2.656a.701.701 0 111.294.54c-.359.859-.716 1.743-1.063 2.628a.7.7 0 01-.653.445zm78.562-1.438a.7.7 0 01-.622-.376c-.44-.84-.894-1.68-1.349-2.5a.701.701 0 011.226-.682c.461.828.92 1.68 1.366 2.53a.7.7 0 01-.621 1.027zm-76.361-3.824a.7.7 0 01-.64-.987c.4-.885.8-1.763 1.208-2.613a.701.701 0 011.265.606c-.4.838-.8 1.705-1.192 2.579a.7.7 0 01-.641.414zm73.582-1.168a.7.7 0 01-.6-.344c-.483-.816-.98-1.631-1.477-2.422a.701.701 0 011.188-.746c.5.8 1.008 1.628 1.5 2.455a.7.7 0 01-.6 1.058zm-71.113-3.985a.7.7 0 01-.623-1.022c.444-.863.9-1.716 1.356-2.537a.701.701 0 011.226.681c-.449.808-.9 1.648-1.336 2.5a.7.7 0 01-.623.38zm68.071-.849a.7.7 0 01-.583-.311 94.527 94.527 0 00-1.612-2.331.701.701 0 011.141-.816c.55.769 1.1 1.565 1.637 2.366a.7.7 0 01-.583 1.092zm-65.3-4.139a.7.7 0 01-.6-1.063c.5-.833 1.019-1.654 1.534-2.438a.701.701 0 011.172.771 71.763 71.763 0 00-1.505 2.392.7.7 0 01-.597.337zm61.974-.505a.7.7 0 01-.558-.275c-.578-.755-1.17-1.5-1.759-2.216a.702.702 0 111.083-.892c.6.728 1.2 1.487 1.791 2.255a.7.7 0 01-.556 1.128zm-58.835-4.259a.7.7 0 01-.568-1.112 59.903 59.903 0 011.747-2.3.703.703 0 011.1.877 57.991 57.991 0 00-1.706 2.243.7.7 0 01-.569.291zm55.2-.145a.7.7 0 01-.524-.235 66.728 66.728 0 00-1.922-2.069.702.702 0 011.007-.977 68.43 68.43 0 011.963 2.113.7.7 0 01-.523 1.168zm-3.978-4.1a.7.7 0 01-.48-.19 55.11 55.11 0 00-2.1-1.877.701.701 0 11.907-1.07 56.425 56.425 0 012.155 1.925.7.7 0 01-.48 1.212zm-47.655-.206a.7.7 0 01-.522-1.169 45.046 45.046 0 012-2.094.701.701 0 11.983 1c-.651.639-1.3 1.322-1.938 2.03a.7.7 0 01-.516.238zm43.3-3.477a.7.7 0 01-.422-.142 44.45 44.45 0 00-2.291-1.621.701.701 0 11.773-1.17 46.178 46.178 0 012.362 1.672.7.7 0 01-.423 1.261zm-39.229-.509a.7.7 0 01-.454-1.236 35.784 35.784 0 012.286-1.792.701.701 0 01.819 1.139 36.247 36.247 0 00-2.2 1.722.7.7 0 01-.444.169zm34.474-2.628a.7.7 0 01-.345-.091c-.82-.464-1.655-.9-2.482-1.288a.702.702 0 11.6-1.269c.859.4 1.725.854 2.576 1.336a.7.7 0 01-.346 1.312zm-29.851-.688a.7.7 0 01-.357-1.305c.846-.5 1.715-.957 2.582-1.359a.702.702 0 11.59 1.273c-.825.383-1.652.818-2.458 1.294a.7.7 0 01-.35.104zm24.7-1.735a.7.7 0 01-.246-.045 31.802 31.802 0 00-2.653-.867.701.701 0 11.377-1.351c.923.257 1.855.562 2.769.9a.7.7 0 01-.247 1.358zm-19.54-.649a.7.7 0 01-.226-1.365 26.383 26.383 0 012.811-.785.701.701 0 11.3 1.37 25 25 0 00-2.661.743.7.7 0 01-.219.04zm14.056-.877a.7.7 0 01-.127-.012A29.957 29.957 0 00307 1.511a.703.703 0 01.122-1.4c.961.084 1.932.215 2.885.389a.7.7 0 01-.125 1.392zm-8.512-.342a.7.7 0 01-.072-1.4c.3-.031.595-.057.888-.078a32.076 32.076 0 012.027-.079.7.7 0 11.009 1.4 28.036 28.036 0 00-2.779.149.714.714 0 01-.069.012z" fill="#fcbf02"/></g><g data-name="Group 16003"><path data-name="Path 44678" d="M350.556 44.611a.7.7 0 01-.656-.452s-.178-.466-.519-1.276a.701.701 0 011.293-.544c.351.835.529 1.3.537 1.321a.7.7 0 01-.655.951z" fill="#fcbf02"/></g></g></g></svg>