<svg xmlns="http://www.w3.org/2000/svg" width="375.59" height="327.617"><g data-name="Group 19615"><path data-name="Path 36564" d="M183.504 303.237a8.751 8.751 0 01-7.865 0l-154.78-89.375c-3.329-1.935-3.329-5.076 0-6.988l77.394-44.638a9.838 9.838 0 018.923 0l155.839 89.971c2.458 1.423 2.458 3.744 0 5.144z" fill="#263238" opacity=".3"/><path data-name="Path 36717" d="M221.2 31.754l3.084-1.752a.771.771 0 00.171-.159.558.558 0 00.08-.216.571.571 0 00-.023-.239.667.667 0 00-.114-.194l-4.814-6.009-3.084 1.764 4.8 6.01a.459.459 0 01.114.2.473.473 0 01.023.217.5.5 0 01-.08.216.358.358 0 01-.157.162z" fill="#fcbf02"/><path data-name="Path 36712" d="M190.913.137l28.169 16.264a1.207 1.207 0 01.41.421 1.368 1.368 0 01.159.558v19.736a1.369 1.369 0 01-.159.558 1.31 1.31 0 01-.41.421l-2 1.161a1.265 1.265 0 01-.569.137 1.2 1.2 0 01-.569-.137l-28.192-16.264a1.2 1.2 0 01-.4-.432 1.229 1.229 0 01-.171-.558V2.243a1.228 1.228 0 01.171-.558 1.364 1.364 0 01.4-.409l2.037-1.138a1.186 1.186 0 01.558-.137 1.2 1.2 0 01.566.136z" fill="#fcbf02"/><path data-name="Path 36716" d="M187.192 2.139c.046-.284.273-.387.558-.216l28.169 16.253a1.09 1.09 0 01.4.421l3.164-1.787a1.059 1.059 0 00-.4-.41L190.914.136a1.2 1.2 0 00-.569-.137 1.265 1.265 0 00-.569.137l-1.98 1.127a1.138 1.138 0 00-.4.375 1.3 1.3 0 00-.204.501z" fill="#fff" opacity=".4"/><path data-name="Path 36722" d="M93.014 60.641l-3.083-5.679 2.436-7.034v-4.3l-7.452 4.3v4.3l3.2 5.554a.459.459 0 00.223.182z" fill="#fcbf02"/><path data-name="Path 36723" d="M93.014 60.641l-3.083-5.679 2.436-7.034v-4.3l-7.452 4.3v4.3l3.2 5.554a.459.459 0 00.223.182z" opacity=".2"/><path data-name="Path 36559" d="M187.795 327.616c103.708 0 187.795-50.773 187.795-113.406S291.5 100.817 187.795 100.817 0 151.59 0 214.211s84.077 113.405 187.795 113.405z" fill="#e9f3fe"/><path data-name="Path 36560" d="M263.026 266.418l-77.679 44.832a8.3 8.3 0 01-8.092.148L20.881 221.12c-2.466-1.423-4.462-4.632-4.462-7.114s2-5.679 4.454-7.1l77.387-44.7a9.914 9.914 0 018.915 0l155.85 89.994c2.458 1.434 4.461 4.632 4.461 7.113s-2.001 5.683-4.46 7.105z" fill="#407bff"/><path data-name="Path 36561" d="M98.261 162.22l-77.387 44.7c-2.457 1.423-4.462 4.621-4.454 7.1s2 5.691 4.454 7.113L177.256 311.4a8.674 8.674 0 003.847.967V204.924l-73.972-42.7a9.917 9.917 0 00-8.87 0z" fill="#426ec1" opacity=".5"/><path data-name="Path 36562" d="M185.347 311.25l77.679-44.832c2.458-1.423 4.462-4.632 4.462-7.113s-2-5.679-4.462-7.1l-81.9-47.279v107.441a8.2 8.2 0 004.221-1.117z" fill="#455a64" opacity=".4"/><path data-name="Path 36563" d="M183.504 303.237a8.751 8.751 0 01-7.865 0l-154.78-89.375c-3.329-1.935-3.329-5.076 0-6.988l77.394-44.638a9.838 9.838 0 018.923 0l155.839 89.971c2.458 1.423 2.458 3.744 0 5.144z" fill="#9fc1f4"/><path data-name="Path 36565" d="M175.992 294.257a9.289 9.289 0 01-8.479 0L34.327 217.366c-2.312-1.343-2.312-3.54 0-4.883l72.8-42.043a9.458 9.458 0 018.471 0l133.186 76.894c2.31 1.354 2.31 3.551 0 4.905z" fill="#37474f"/><path data-name="Path 36566" d="M111.117 169.448a8.827 8.827 0 00-3.987.99l-72.8 42.043c-2.312 1.343-2.312 3.54 0 4.894l14.433 8.32 62.357-39.812z" fill="#263238"/><path data-name="Path 36567" d="M115.659 173.625a9.369 9.369 0 00-8.475 0l-72.81 42.032a4.246 4.246 0 00-1.1.888 4.142 4.142 0 001.055.819l133.185 76.894a9.287 9.287 0 008.479 0l72.807-42.02a4.821 4.821 0 001.093-.876 4.111 4.111 0 00-1.047-.842z" fill="#407bff"/><path data-name="Path 36568" d="M115.659 173.625a9.369 9.369 0 00-8.475 0l-72.81 42.032a4.246 4.246 0 00-1.1.888 4.142 4.142 0 001.055.819l133.185 76.894a9.287 9.287 0 008.479 0l72.807-42.02a4.821 4.821 0 001.093-.876 4.111 4.111 0 00-1.047-.842z" fill="#fff" opacity=".75"/><path data-name="Path 36569" d="M60.935 192.814l12.908-7.466c.771-.456.771-1.15.084-1.548a2.94 2.94 0 00-1.354-.3 3.066 3.066 0 00-1.342.353l-12.892 7.455c-.771.432-.771 1.138-.085 1.536a2.935 2.935 0 002.682-.034z" fill="#37474f"/><path data-name="Path 36570" d="M83.097 180.044a.757.757 0 00.544-.228.772.772 0 000-1.093.757.757 0 00-.544-.228 2.931 2.931 0 00-2.613 0 .757.757 0 00-.544.228.772.772 0 000 1.093.757.757 0 00.544.228 2.933 2.933 0 002.613 0z" fill="#37474f"/><path data-name="Path 36571" d="M88.331 177.017a.813.813 0 00.431-.273.779.779 0 000-.968.733.733 0 00-.431-.262 2.851 2.851 0 00-2.62 0 .73.73 0 00-.43.262.779.779 0 000 .968.81.81 0 00.43.273 2.852 2.852 0 002.62 0z" fill="#37474f"/><path data-name="Path 36572" d="M46.48 201.179a.757.757 0 00.544-.228.772.772 0 000-1.093.794.794 0 00-.544-.216 2.834 2.834 0 00-2.612 0 .8.8 0 00-.545.216.775.775 0 000 1.093.759.759 0 00.545.228 2.928 2.928 0 002.612 0z" fill="#37474f"/><path data-name="Path 36573" d="M51.712 198.163a.823.823 0 000-1.548 2.933 2.933 0 00-2.613 0c-.724.421-.724 1.093 0 1.548a2.933 2.933 0 002.613 0z" fill="#37474f"/><path data-name="Path 36574" d="M69.9 244.327a2.891 2.891 0 01.974.979 3.037 3.037 0 01.42 1.332.836.836 0 01-.08.456.79.79 0 01-.305.353c-.17.1-.771.478-.979.569a1 1 0 01-.517.08 1.065 1.065 0 01-.485-.193l-18.1-10.471a2.935 2.935 0 01-.973-.99 2.973 2.973 0 01-.421-1.32.9.9 0 01.075-.433.982.982 0 01.272-.342l1.01-.581a1.159 1.159 0 01.519-.079 1.08 1.08 0 01.489.193z" fill="#407bff"/><path data-name="Path 36575" d="M69.9 244.327a2.891 2.891 0 01.974.979 3.037 3.037 0 01.42 1.332.836.836 0 01-.08.456.79.79 0 01-.305.353c-.17.1-.771.478-.979.569a1 1 0 01-.517.08 1.065 1.065 0 01-.485-.193l-18.1-10.471a2.935 2.935 0 01-.973-.99 2.973 2.973 0 01-.421-1.32.9.9 0 01.075-.433.982.982 0 01.272-.342l1.01-.581a1.159 1.159 0 01.519-.079 1.08 1.08 0 01.489.193z" opacity=".4"/><path data-name="Path 36576" d="M68.956 244.884l-18.131-10.471c-.771-.444-1.4-.136-1.4.706a3 3 0 001.4 2.311l18.131 10.459c.771.444 1.4.136 1.4-.706a3 3 0 00-1.4-2.3z" fill="#407bff"/><path data-name="Path 36577" d="M68.956 244.884l-18.131-10.471c-.771-.444-1.4-.136-1.4.706a3 3 0 001.4 2.311l18.131 10.459c.771.444 1.4.136 1.4-.706a3 3 0 00-1.4-2.3z" opacity=".3"/><path data-name="Path 36578" d="M45.654 230.305a3.044 3.044 0 01.973.99 2.977 2.977 0 01.422 1.32.893.893 0 01-.077.467.945.945 0 01-.308.353l-.979.569a1 1 0 01-.516.068.947.947 0 01-.486-.182l-8.553-4.94a3.042 3.042 0 01-.973-.99 2.961 2.961 0 01-.421-1.321.9.9 0 01.08-.432.892.892 0 01.274-.342c.178-.114.832-.489 1.01-.58a.908.908 0 01.519-.08.958.958 0 01.491.182z" fill="#407bff"/><path data-name="Path 36579" d="M45.654 230.305a3.044 3.044 0 01.973.99 2.977 2.977 0 01.422 1.32.893.893 0 01-.077.467.945.945 0 01-.308.353l-.979.569a1 1 0 01-.516.068.947.947 0 01-.486-.182l-8.553-4.94a3.042 3.042 0 01-.973-.99 2.961 2.961 0 01-.421-1.321.9.9 0 01.08-.432.892.892 0 01.274-.342c.178-.114.832-.489 1.01-.58a.908.908 0 01.519-.08.958.958 0 01.491.182z" opacity=".4"/><path data-name="Path 36580" d="M44.684 230.874l-8.553-4.94c-.771-.444-1.4-.125-1.4.706a2.978 2.978 0 00.422 1.321 3.044 3.044 0 00.973.99l8.553 4.94c.771.444 1.394.125 1.394-.706a3.039 3.039 0 00-.42-1.332 2.9 2.9 0 00-.969-.979z" fill="#407bff"/><path data-name="Path 36581" d="M44.684 230.874l-8.553-4.94c-.771-.444-1.4-.125-1.4.706a2.978 2.978 0 00.422 1.321 3.044 3.044 0 00.973.99l8.553 4.94c.771.444 1.394.125 1.394-.706a3.039 3.039 0 00-.42-1.332 2.9 2.9 0 00-.969-.979z" opacity=".3"/><path data-name="Path 36582" d="M114.122 252.089l20.157 11.689a2.435 2.435 0 002.2 0l57.841-33.348a.749.749 0 00.33-.239.691.691 0 00.125-.4.682.682 0 00-.125-.387.67.67 0 00-.33-.239l-20.157-11.689a2.436 2.436 0 00-2.2 0l-57.841 33.37a.708.708 0 00-.307.239.7.7 0 000 .762.634.634 0 00.307.242z" opacity=".15"/><path data-name="Path 36583" d="M191.949 227.438a.68.68 0 00-.137-.364.76.76 0 00-.307-.262l-18.017-10.4a2.393 2.393 0 00-1.081-.25 2.312 2.312 0 00-1.07.25l-55.018 31.812a.93.93 0 00-.307.25.882.882 0 00-.137.375v1.89a.881.881 0 00.137.375.934.934 0 00.307.251l18.028 10.4a2.436 2.436 0 002.151 0l55.007-31.731a.657.657 0 00.307-.251.679.679 0 00.137-.364z" fill="#263238"/><path data-name="Path 36584" d="M134.347 259.817l-18.028-10.357a.66.66 0 01-.319-.239.646.646 0 01-.125-.376.68.68 0 01.125-.387.659.659 0 01.319-.239l55.018-31.812a2.312 2.312 0 011.07-.25 2.393 2.393 0 011.081.25l18.017 10.4a.711.711 0 01.33.239.67.67 0 01.114.387.611.611 0 01-.114.375.641.641 0 01-.33.239l-55.007 31.766a2.341 2.341 0 01-2.151 0z" fill="#37474f"/><path data-name="Path 36585" d="M135.348 260.09v1.935a2.257 2.257 0 01-1.013-.25l-18.006-10.4a.732.732 0 01-.307-.25.753.753 0 01-.137-.375v-1.912a.752.752 0 00.137.376.732.732 0 00.307.25l18.006 10.369a2.435 2.435 0 001.013.257z" fill="#263238"/><path data-name="Path 36586" d="M172.269 218.047l1.787 1.024-2.413 1.412-1.855-1.047 2.424-1.388zm2.8 1.616l1.776 1.036-1.889 1.093-1.81-1 1.912-1.1zm-6.169.342h.045l1.787 1.024-1.9 1.1-1.844-1.024 1.889-1.1zm8.98 1.263l1.787 1.036-3.084 1.775-1.844-1.036 3.084-1.775zm-5.657.045l1.787 1.036-1.548.865-1.844-1.036 1.548-.865zm-6.169.342h.034l1.787 1.024-1.9 1.1-1.844-1.036 1.9-1.092zm3.7 1.092h.045l1.776 1.024-1.5.865-1.844-1.024 1.536-.876zm10.926.148l1.776 1.024-2.367 1.411-1.844-1.047 2.424-1.388zm-17.482.409l1.776 1.036-13.726 7.933-1.855-1.047 13.737-7.922zm10.653.3h.034l1.8 1.036-1.548.865-1.844-1.036 1.536-.865zm-6.567.569l1.787 1.024-1.537.876-1.855-1.036 1.548-.876zm16.184.33l1.787 1.036-1.536.865-1.855-1.036 1.548-.876zm-6.169.341h.045l1.776 1.036-1.536.865-1.844-1.036 1.536-.876zm-5.918.193h.046l1.787 1.025-1.536.865-1.855-1.024 1.537-.876zm-6.556.558l1.787 1.036-1.548.865-1.844-1.036 1.536-.865zm16.173.33h.046l1.787 1.036-1.548.876-1.832-1.047 1.536-.865zm-6.157.341h.034l1.787 1.036-1.536.865-1.855-1.035 1.548-.876zm-5.918.193h.045l1.776 1.024-1.536.876-1.844-1.036 1.536-.876zm17.948 0h.046l1.787 1.024-1.9 1.1-1.844-1.036 1.889-1.1zm-24.516.558h.011l1.775 1.036-1.536.876-1.787-1.036 1.5-.876zm16.184.342l1.787 1.024-1.548.876-1.775-1.036 1.536-.865zm-6.169.33l1.787 1.036-1.536.876-1.787-1.024 1.548-.876zm-5.907.193h.034l1.787 1.036-1.548.876-1.844-1.047 1.548-.865zm-6.567.569l1.776 1.024-1.537.876-1.844-1.036 1.548-.876zm23.048.285l1.787 1.024-1.536.876-1.855-1.036 1.548-.876zm-6.863.045l1.787 1.036-1.548.865-1.844-1.036 1.536-.865zm-6.169.342h.046l1.787 1.024-1.548.876-1.867-.99 1.536-.865zm-5.907.193l1.787 1.024-1.536.876-1.855-1.047 1.537-.865zm-6.567.558h.034l1.787 1.036-1.537.865-1.844-1.036 1.537-.865zm23.047.285h.046l1.776 1.036-1.537.865-1.844-1.036 1.5-.876zm-6.863.045h.034l1.787 1.036-1.536.865-1.855-1.024 1.548-.876zm-6.169.353l1.787 1.024-1.536.865-1.855-1.036 1.548-.865zm-5.918.182l1.787 1.036-1.536.865-1.844-1.059 1.5-.876zm-6.567.569h.045l1.787 1.024-1.548.865-1.832-1.024 1.5-.876zm23.059.273l1.775 1.036-1.536.876-1.844-1.047 1.548-.865zm-6.875.057h.046l1.787 1.024-1.548.876-1.844-1.036 1.548-.876zm-22.615.159h-.046l1.787 1.024-1.9 1.093-1.844-1.024 1.9-1.1zm16.446.182h.034l1.787 1.024-1.537.876-1.855-1.036 1.548-.876zm-5.907.182h.034l1.776 1.036-1.536.865-1.844-1.024 1.548-.876zm-6.567.569l1.776 1.024-1.537.876-1.844-1.036 1.536-.876zm23.048.284h.034l1.787 1.024-1.536.876-1.923-1.024 1.548-.876zm-6.875.046l1.8 1.024-1.548.876-1.844-1.036 1.548-.865zm-6.157.341h.046l1.776 1.036-1.536.865-1.844-1.035 1.548-.876zm-16.833.045h.046l1.787 1.024-1.912 1.1-1.832-1.036 1.889-1.1zm10.926.137l1.741 1.07-1.548.876-1.844-1.036 1.536-.865zm-6.567.569h-.023l1.787 1.036-1.536.876-1.844-1.047 1.536-.865zm16.185.342h-.023l1.787 1.024-1.536.876-1.855-1.047 1.548-.865zm-6.169.33l1.787 1.036-1.536.876-1.844-1.047 1.536-.865zm-5.918.193h.034l1.787 1.024-1.537.876-1.844-1.036 1.537-.865zm17.88 0l1.787 1.036-1.548.865-1.832-1.036 1.536-.865zm-29.182.045l1.775 1.024-1.889 1.092-1.855-1.036 1.9-1.092zm4.735.478h.034l1.8 1.036-1.548.865-1.844-1.036 1.5-.865zm16.184.33h.046l1.776 1.036-1.536.876-1.844-1.047 1.5-.865zm-6.169.341h.046l1.787 1.036-1.548.865-1.844-1.036 1.536-.876zm-5.918.193h.046l1.787 1.036-1.548.865-1.935-.99 1.548-.876zm17.892.034h.034l1.787 1.036-1.536.876-1.855-1.047 1.548-.865zm-29.581.273l1.787 1.024-2.424 1.4-1.844-1.036 2.413-1.388zm5.122.262h.057l1.775 1.024-4.86 2.823-1.844-1.036 4.758-2.754zm16.184.33h.046l1.776 1.024-1.536.876-1.844-1.047 1.536-.854zm-6.157.33h.045l1.776 1.036-1.536.876-1.844-1.036 1.5-.876zm-5.919.193h.046l1.787 1.036-1.548.876-1.844-1.047 1.536-.865zm17.88.045h.034l1.787 1.024-1.537.876-1.946-.99 1.5-.865zm-8.263.854h.045l1.787 1.036-1.548.865-1.844-1.036 1.537-.865zm-22.74.239l1.787 1.024-1.548.865-1.844-1.024 1.537-.876zm16.572.1h.034l1.787 1.024-1.548.876-1.832-1.035 1.536-.865zm-5.918.193h.034l1.787 1.024-1.377.774a.327.327 0 00-.114.1.35.35 0 00-.034.148.26.26 0 00.046.159.252.252 0 00.114.1l2.311 1.354-1.776 1.024-4.621-2.652 3.6-2.072zm17.88.034h.045l1.776 1.036-1.536.865-1.844-1.036 1.536-.865zm-8.263.865l1.787 1.024-1.536.865-1.844-1.024 1.536-.876zm-22.752.228h.045l1.787 1.024-1.594.944-1.844-1.036 1.5-.865zm16.583.114h.034l1.787 1.024-1.536.865-1.855-1.036 1.548-.865zm10.881.842h.045l1.787 1.036-1.548.865-1.832-1.036 1.5-.876zm-7.182.239h.046l1.776 1.024-1.536.876-1.844-1.036 1.536-.876zm-22.752.228h.046l1.776 1.036-1.536.876-1.844-1.047 1.548-.865zm5.27.193h.034l1.787 1.025-1.548.876-1.832-1.047 1.536-.865zm22.205.763h.034l1.775 1.035-1.536.876-1.923-.99 1.536-.876zm-7.193.239h.041l1.787 1.024-2.675 1.548-1.855-1.036 2.686-1.537zm-23.275.535h.046l1.787 1.036-3.984 2.311-1.844-1.047 3.972-2.311zm16.321.25h.046l1.776 1.036-1.537.876-1.844-1.036 1.537-.876zm11.666.41h.046l1.787 1.035-1.548.865-1.844-1.024 1.537-.876zm-25.187.956h.034l1.787 1.024-1.548.876-1.832-1.036 1.536-.865zm11.051.068h.034l1.787 1.024-1.548.876-1.832-1.036 1.536-.865zm5.258.193l1.787 1.024-1.536.876-1.844-1.047 1.536-.865zm6.408.216l1.787 1.024-1.536.865-1.844-1.036 1.536-.865zm-30.457.763h.045l1.787 1.036-1.548.865-1.844-1.024 1.536-.876zm5.27.193h.034l1.787 1.024-1.536.876-1.855-1.036 1.548-.876zm11.051.068h.034l1.684 1.093-1.548.888-1.844-1.047 1.536-.865zm-5.793.114h.046l1.787 1.024-1.548.876-1.844-1.036 1.5-.865zm11.051.068h.034l1.787 1.036-1.536.876-1.844-1.047 1.536-.865zm5.861.535h.046l1.775 1.024-1.536.876-1.844-1.036 1.536-.865zm-29.911.455h.034l4.587 2.641-1.548.876-4.621-2.652 1.537-.876zm5.258.182h.046l1.787 1.024-1.548.888-1.833-1.047 1.536-.865zm5.27.193h.045l1.776 1.024-1.536.876-1.844-1.047 1.536-.865zm11.051.068h.045l1.776 1.024-1.536.876-1.844-1.036 1.5-.876zm-5.782.114h.034l1.787 1.036-1.548.865-1.912-.99 1.536-.876zm11.643.41l1.787 1.035-1.536.876-1.855-1.047 1.548-.865zm-19.383.831h.046l1.787 1.036-1.548.865-1.844-1.036 1.537-.876zm5.27.182h.034l1.787 1.036-1.536.865-1.855-1.036 1.548-.876zm5.179.25l1.787 1.036-1.548.876-1.844-1.047 1.537-.865zm6.374.239h.046l1.787 1.036-1.548.865-1.844-1.036 1.5-.876zm-19.383.819h.046l4.575 2.641-1.536.876-4.632-2.652 1.548-.865zm5.27.182l1.787 1.036-1.548.876-1.753-1.07 1.548-.865zm5.258.194h.046l1.787 1.024-1.548.876-1.844-1.036 1.548-.865zm6.556.888l.774.432-1.536.876-.831-.455 1.536-.865zm-9.037.478h.034l1.776 1.024-1.536.876-1.844-1.036 1.548-.865zm6.567.944h.046l.774.433-1.548.876-.819-.444 1.491-.876zm-9.048.478h.045l1.787 1.036-1.548.865-1.844-1.036 1.536-.865zm6.578.945h.046l.774.444-1.548.865-.819-.443 1.536-.865zm-2.47 1.423l.774.444-1.548.865-.831-.444 1.548-.865z" fill="#bac7e5"/><path data-name="Path 36587" d="M69.126 230.248c.832 2.105 2.628 3.2 5.286 4.393 7.783 3.506 26.438 7.705 36.911 9.561 6.089 1.093 12.326 3.084 18.552 3.357 5.577.228 11.347-.774 15.98-3.915a3.452 3.452 0 001.491-1.628 2.611 2.611 0 00-.171-1.662 2.571 2.571 0 00-1.127-1.229 7.93 7.93 0 00-3.289-.865 134.2 134.2 0 01-36.076-9.561c5.175-.546 10.422-1.115 15.236-3.084s9.242-5.577 10.9-10.494a5.755 5.755 0 011.434-2.731 3.329 3.329 0 013.153-.3c3.38 1.218 4.723 5.178 5.725 8.627s2.663 7.386 6.157 8.183c-1.263-.774-.762-2.971.569-3.506a3.385 3.385 0 013.8 1.536c.819 1.241 1.024 2.652 1.707 3.9s2.128 2.322 3.448 1.8a3.263 3.263 0 001.548-1.65c1.855-3.642 1.537-8.138-.114-11.882a31.361 31.361 0 00-7.375-9.731c-4.12-3.938-8.764-7.466-14.1-9.469-11.177-4.2-23.742-1.15-34.812 3.323a144.662 144.662 0 00-23.957 12.372 40.493 40.493 0 00-7.891 6.158c-1.688 1.809-3.46 4.359-3.282 6.942a5.245 5.245 0 00.297 1.555z" opacity=".1"/><path data-name="Path 36588" d="M163.825 218.252c-1.627-2.527-4.564-7.705-5.474-8.775-2.5-2.845-7.671-7.352-7.671-7.352-4.871-3.972-19.827-17.175-19.827-17.175s-2.31-29.285-4.894-33.974c-2.993-5.452-8.684-5.679-14.568-6.032a116.3 116.3 0 00-2.141 11.563s5.294 32.836 5.92 35.886 2.185 4.393 5.338 6.419c4.814 3.084 22.239 12.451 22.239 12.451l.854.592a3.4 3.4 0 011.263 1.685 9.918 9.918 0 01.455 2.071c.273 2.436 0 3.084.2 5.736s.774 2.572 1.81 4.837c.933 2.106 1.218 3.426 1.98 3.506s1.764-1.639 1.764-3.369-1.058-3.642-1.093-4.382.341-1.639 1.992-.672 3.187 3.927 4.416 5.964 1.878 4.746 3.118 6.215 1.707-.159 2.276-1.537 3.346-3.631 4.086-5.839-.426-5.276-2.043-7.818z" fill="#ffa8a7"/><path data-name="Path 36589" d="M111.391 144.761c4.052 0 7.341-.444 10.915 1.73s4.53 5.145 5.338 9.765c.728 4.211 2.219 18.7 2.219 18.7s-10.3 5.679-19.269 2.049z" fill="#455a64"/><path data-name="Path 36590" d="M119.915 124.901a22.906 22.906 0 014.883 2.265 4.313 4.313 0 011.491 5.839l-1.855-.364s.956-2.185-.171-3.346-4.382-2.174-4.382-2.174z" fill="#263238"/><path data-name="Path 36591" d="M125.515 131.798c-1.537-.729-2.231.2-3.3 2.766s-.33 3.255.967 3.767 2.31-.342 3.084-2.47c.888-2.379.865-3.266-.751-4.063z" fill="#407bff"/><path data-name="Path 36592" d="M125.64 131.821c-1.548-.74-2.231.2-3.3 2.766s-.33 3.255.968 3.767 2.31-.353 3.084-2.47c.896-2.379.876-3.267-.752-4.063z" opacity=".1"/><path data-name="Path 36593" d="M94.671 146.627a144.222 144.222 0 00-24.412 7.591s-.546 29.216 4.185 43.147 3.367 29.831 3.367 29.831c23.117 3.733 51.153-7.011 50.459-18.666a52.059 52.059 0 00-3.892-7.011s-.58-9.356-.33-13.533c16.958-15.866-6.578-36.216-12.656-43.193-3.699.482-9.131.139-16.721 1.834z" fill="#455a64"/><path data-name="Path 36594" d="M93.276 103.697c-1.095 1.969-.64 4.291-.193 6.373.347 1.582 1.3 3.551.895 5.156a10.436 10.436 0 01-3.854 5.531 11 11 0 01-1.456 1.036c-.439.239-.948.353-1.4.592a6.267 6.267 0 00-2.273 2.311 17.493 17.493 0 00-1.649 4.382 15.2 15.2 0 01-1.733 4.336 8.994 8.994 0 01-7.967 3.767 10.868 10.868 0 01-4.8-1.537 12.858 12.858 0 01-2.058-1.548 5.141 5.141 0 01-1.357-1.8 8.686 8.686 0 001.449 5.827 10.216 10.216 0 01-11.905-11.45c.278-1.98 1.118-3.858 1.541-5.782 1.171-5.235-3.529-8.1-4.3-12.873a7.413 7.413 0 013.776-7.557c1.61-.842 3.73-1.275 4.4-2.959.516-1.3-.116-2.731-.093-4.131 0-2.754 2.605-4.86 5.225-5.691s5.463-.831 8.106-1.616c2.82-.831 5.394-2.55 8.261-3.073a10.623 10.623 0 019.4 3.2c1.086 1.161 1.679 2.5 2.643 3.7s2.434 1.81 3.144 3.209a6.521 6.521 0 01.828 2.959 6.431 6.431 0 01-.627 3c-.96 1.849-3.002 2.863-4.003 4.638z" fill="#263238"/><path data-name="Path 36595" d="M119.346 109.927c-.33-9.162-5.657-22.251-25.355-20.578-19.2 1.639-24.85 18.768-23.117 28.067 2.443 12.838 11.782 13.658 14.21 22.058z" fill="#28343b"/><path data-name="Path 36596" d="M76.398 116.94a4.622 4.622 0 014.823-1.6 4.776 4.776 0 012.373 1.536c.887.979.871 2.311 1.5 3.437a2.486 2.486 0 001.88 1.354c2.643.239 1.656-4.052 1.8-5.577 4.993-1.764 4.854-3.619 5.533-8.024 3.5-3.779 9.571-4.336 14.826-.717 3.2-6.169 6.684-5.395 8.187-3.494a24.8 24.8 0 012.242 7.17 47.29 47.29 0 01.831 11.324c-.637 14.728-5.5 18.267-7.91 19.269s-5.4.273-9.846-.569v8.844c4.624 8.832 8.31 22.183 8.139 30.9-7.113-13.464-18.248-20.669-23.511-25.563a20.273 20.273 0 01-3.182-3.665v-23.241s-1.942 2.072-5.025-.376c-4.122-3.298-5.386-7.919-2.66-11.008z" fill="#ffa8a7"/><path data-name="Path 36597" d="M102.642 141.074c-3.853-1-7.975-2.458-10.787-4.633a13.269 13.269 0 01-4.177-5.861s.331 5.679 3.19 8.24 11.8 5.509 11.8 5.509z" fill="#f28f8f"/><path data-name="Path 36605" d="M102.638 143.896c2.974.865 11.666 12.622 14.489 16.856l-3.2 8.138a37.65 37.65 0 015.042 6.5l-6.5 18.916s.58-25.2-9.834-44.388z" fill="#263238"/><path data-name="Path 36606" d="M111.607 179.873c2.311 6.01 2.641 19.917 2.641 19.917s-2.322-12.975-13.236-17.528c0-.626.115-9.515.115-9.515s-14.64-3.71-17.722-5.11l-3.151-16.947s2.1-5.258 3.853-5.395v3.654a169.874 169.874 0 0113.816 12.167c7.982 7.694 11.385 12.759 13.684 18.757z" fill="#37474f"/><path data-name="Path 36607" d="M149.462 239.729c-2.367-1.98-5.782-4.723-8.479-5.4a16.229 16.229 0 00-1.923-.432 20.006 20.006 0 002.686-.762 4.909 4.909 0 002.2-1.73c.194-.319.319-.774 0-1.013a.706.706 0 00-.4-.114c-1.992.1-3.585-.08-5.395-.057a7.993 7.993 0 00-2.436.239c-.717.273-1.445.558-2.151.865-3.221 1.411-6.169 2.7-10.915 1.992l-1.992-.523-33.422-17.22-6.342-34.52s-1.541-21.409-10.209-26.6c-4.624 1.753-9.687 6.1-11.058 10.778-1.618 5.577-.986 13.487 1.772 25.768 2.312 10.266 4.724 20.805 7.337 28.624s3.614 10.585 8.745 12.122c8.607 2.572 39.66 11.085 39.66 11.085a19.348 19.348 0 001.946.637 29.518 29.518 0 004.621 1.594c3.027.671 6.715-.717 9.242-1.07s6.988.478 9.447 1.252 5.008-3.13 6.237-2.777 3.185-.758.829-2.738z" fill="#ffa8a7"/><path data-name="Path 36608" d="M137.819 232.593a9.042 9.042 0 00-3.585.887 20.1 20.1 0 014.8.433 20.056 20.056 0 002.686-.774 5.168 5.168 0 001.992-1.457c-1.386 1.092-4.152.94-5.893.911z" fill="#f28f8f"/><path data-name="Path 36609" d="M70.258 154.22c-5.987 2.561-9.955 5.691-11.558 12.281s-.47 12.372.879 19.349 4.507 18.3 4.507 18.3 12.814.774 20.2-4.348l-4.045-26.291s-2.135-15.615-9.579-19.053" fill="#455a64"/><path data-name="Path 36610" d="M80.562 92.406c-4.5 4.166-8.815 10.084-5.618 23.753a7.422 7.422 0 00-1.856 7.705c1.233 4.222 5.286 7.011 9.054 6.169s5.809-4.86 4.576-9.094c-.932-3.153-4.323-6.214-7.112-6.021 0 0-2.673-5.85-.17-14.136 3.421-11.3 16.591-12.235 22.385-11.324-1.941-2.743-15.311-2.56-21.259 2.948z" fill="#407bff"/><path data-name="Path 36611" d="M80.562 92.406c-4.5 4.166-8.815 10.084-5.618 23.753a7.422 7.422 0 00-1.856 7.705c1.233 4.222 5.286 7.011 9.054 6.169s5.809-4.86 4.576-9.094c-.932-3.153-4.323-6.214-7.112-6.021 0 0-2.673-5.85-.17-14.136 3.421-11.3 16.591-12.235 22.385-11.324-1.941-2.743-15.311-2.56-21.259 2.948z" fill="#2a83e8" opacity=".4"/><path data-name="Path 36612" d="M87.52 120.791c-1.371-4.678-5.864-7.751-10.018-6.874a6.088 6.088 0 00-1.811.671c-.47.262-1.887 1.241-2.165 1.423-2.667 1.764-3.853 5.395-2.8 9.117 1.371 4.689 5.865 7.762 10.018 6.886a6.448 6.448 0 002.157-.876c.339-.216 1.665-1.1 1.988-1.332 2.55-1.797 3.702-5.338 2.631-9.015z" fill="#407bff"/><path data-name="Path 36613" d="M87.52 120.791c-1.371-4.678-5.864-7.751-10.018-6.874a6.088 6.088 0 00-1.811.671c-.47.262-1.887 1.241-2.165 1.423-2.667 1.764-3.853 5.395-2.8 9.117 1.371 4.689 5.865 7.762 10.018 6.886a6.448 6.448 0 002.157-.876c.339-.216 1.665-1.1 1.988-1.332 2.55-1.797 3.702-5.338 2.631-9.015z" opacity=".3"/><path data-name="Path 36614" d="M85.817 121.941c-1.371-4.677-5.864-7.762-10.017-6.874s-6.442 5.395-5.071 10.072 5.864 7.751 10.017 6.875 6.442-5.395 5.071-10.073z" fill="#407bff"/><path data-name="Path 36616" d="M81.833 122.783a4.3 4.3 0 00-4.739-3.244 3.556 3.556 0 00-2.4 4.746 4.325 4.325 0 004.739 3.244c1.968-.409 3.046-2.549 2.4-4.746z" fill="#37474f"/><path data-name="Path 36617" d="M173.727 288.475l-15.581-9.128a.773.773 0 01-.546-1.309.765.765 0 01.546-.228l61.1-35.271a2.909 2.909 0 011.3-.319 2.837 2.837 0 011.3.319l15.558 9.048a.758.758 0 01.421.273.746.746 0 01.171.478.694.694 0 01-.171.467.706.706 0 01-.421.273l-61.084 35.408a2.815 2.815 0 01-1.286.308 2.844 2.844 0 01-1.307-.319z" opacity=".1"/><path data-name="Path 36618" d="M230.589 237.076l4.086-48.542a4.153 4.153 0 00-.432-2.06 4.206 4.206 0 00-1.377-1.582 4.756 4.756 0 00-2.094-.455 4.558 4.558 0 00-2.072.535l-61.028 35.237a5.452 5.452 0 00-1.582 1.6 5.179 5.179 0 00-.774 2.106l-4.086 48.553a4.252 4.252 0 00.421 2.049 4.138 4.138 0 001.389 1.582 4.434 4.434 0 002.094.455 4.521 4.521 0 002.072-.535l61.028-35.2a5.268 5.268 0 001.593-1.616 5.431 5.431 0 00.762-2.127z" fill="#263238"/><path data-name="Path 36619" d="M234.676 188.523l-4.086 48.542 2.97-48.189c.1-1.366-.387-1.878-1.548-1.207l-60.276 34.839a4.9 4.9 0 00-1.548 1.582l-4.029-2.31a4.791 4.791 0 011.548-1.548l61.016-35.237a4.743 4.743 0 012.083-.523 4.464 4.464 0 012.094.455 4.133 4.133 0 011.776 3.6z" fill="#37474f"/><path data-name="Path 36620" d="M165.259 274.795l4.1-48.542a5.384 5.384 0 01.762-2.117 5.453 5.453 0 011.582-1.6l60.288-34.884c1.184-.683 1.673-.16 1.537 1.206l-2.969 48.183a5.383 5.383 0 01-.762 2.117 5.2 5.2 0 01-1.582 1.6l-61.028 35.237c-1.164.724-2.028.166-1.928-1.2z" fill="#455a64"/><path data-name="Path 36621" d="M195.242 245.453l-.467 14.625 16.958-9.743-4.131-11.985z" fill="#263238"/><path data-name="Path 36622" d="M197.719 247.058l11.837-6.863-2.026-1.172-11.825 6.886z" fill="#455a64"/><path data-name="Path 36623" d="M216.021 260.728l-6.465-20.544-11.837 6.886-2-1.172 1.32 15.809.33 4.553.193.967-.865-.489-3.847-2.208a.619.619 0 00-.285-.1.53.53 0 00-.3.023.651.651 0 00-.216.25.593.593 0 00-.057.318v.341a2.066 2.066 0 00.239.831 1.8 1.8 0 00.6.637l6.328 3.653a1.815 1.815 0 00.774.205 1.778 1.778 0 00.911-.205l14.42-8.319a1.542 1.542 0 00.592-.615 1.369 1.369 0 00.165-.821zm-9.094-1.764a2.446 2.446 0 01-2.345.262 2.41 2.41 0 01-.979-.706 2.65 2.65 0 01-.535-1.092 4.728 4.728 0 01.273-2.857 4.793 4.793 0 011.844-2.185 2.443 2.443 0 011.138-.433 2.481 2.481 0 011.218.159 2.43 2.43 0 01.979.717 2.5 2.5 0 01.524 1.093 4.757 4.757 0 01-2.117 5.042z" fill="#37474f"/><path data-name="Path 36624" d="M192.279 264.457l4.917-2.834 1 6.612z"/><path data-name="Path 36625" d="M197.719 247.07l-2.014-1.161 1.662 20.339c.114.546-.194.774-.66.478l-3.847-2.208c-.478-.273-.854-.045-.854.5v.341a1.9 1.9 0 00.82 1.468l6.351 3.665a1.985 1.985 0 00.762.194z" fill="#263238"/><path data-name="Path 36626" d="M206.926 258.964a2.436 2.436 0 01-1.673.432 2.5 2.5 0 01-1.548-.774 2.79 2.79 0 001.8-.421 4.73 4.73 0 002.117-5.031 2.917 2.917 0 00-.637-1.218 2.468 2.468 0 011.332.66 2.606 2.606 0 01.717 1.321 4.606 4.606 0 01-.262 2.845 4.741 4.741 0 01-1.846 2.186z" fill="#263238"/><path data-name="Path 36627" d="M196.787 228.079l-.774 9.356c-.057.614.285.91.774.637a2.182 2.182 0 00.637-.694 1.956 1.956 0 00.3-.9l.774-9.355c.057-.626-.285-.9-.774-.637a2.322 2.322 0 00-.637.694 2.268 2.268 0 00-.3.899z" fill="#407bff"/><path data-name="Path 36628" d="M199.825 226.321l-.774 9.355c-.057.615.284.9.774.637a2.186 2.186 0 00.637-.694 2.383 2.383 0 00.3-.911l.774-9.355c.057-.615-.285-.9-.774-.626a2.188 2.188 0 00-.637.694 2.269 2.269 0 00-.3.9z" fill="#407bff"/><path data-name="Path 36629" d="M202.852 224.557l-.762 9.367c-.057.615.284.9.762.637a2.228 2.228 0 00.649-.695 2.384 2.384 0 00.3-.91l.774-9.344c.046-.626-.284-.911-.774-.649a2.23 2.23 0 00-.637.706 2.123 2.123 0 00-.312.888z" fill="#407bff"/><path data-name="Path 36630" d="M205.891 222.816l-.774 9.355c-.046.615.285.9.774.637a2.256 2.256 0 00.945-1.6l.763-9.355c.057-.615-.285-.9-.763-.625a2.219 2.219 0 00-.649.694 2.271 2.271 0 00-.296.894z" fill="#407bff"/><path data-name="Path 36631" d="M164.485 130.694c-4.928-5.1-7.842-25.825-3.027-29.865h24.5c4.814 4.04 1.912 24.766-3.016 29.854l-.137.136-.171.171q-.222.222-.444.41l-.114.091c-.125.091-.239.193-.375.284a7.527 7.527 0 01-.637.41 16.11 16.11 0 01-14.7 0 7.763 7.763 0 01-.649-.41 3.134 3.134 0 01-.341-.273 1.815 1.815 0 01-.148-.114c-.046-.046-.3-.25-.432-.387l-.194-.194z" fill="#407bff"/><path data-name="Path 36632" d="M164.485 130.694c-4.928-5.1-7.842-25.825-3.027-29.865h24.5c4.814 4.04 1.912 24.766-3.016 29.854l-.137.136-.171.171q-.222.222-.444.41l-.114.091c-.125.091-.239.193-.375.284a7.527 7.527 0 01-.637.41 16.11 16.11 0 01-14.7 0 7.763 7.763 0 01-.649-.41 3.134 3.134 0 01-.341-.273 1.815 1.815 0 01-.148-.114c-.046-.046-.3-.25-.432-.387l-.194-.194z" opacity=".3"/><path data-name="Path 36633" d="M183.834 99.202c5.588 3.267 5.588 8.559 0 11.826s-14.637 3.255-20.248 0-5.577-8.559 0-11.826 14.662-3.233 20.248 0z" fill="#407bff"/><path data-name="Path 36634" d="M183.834 99.202c5.588 3.267 5.588 8.559 0 11.826s-14.637 3.255-20.248 0-5.577-8.559 0-11.826 14.662-3.233 20.248 0z" opacity=".1"/><path data-name="Path 36635" d="M181.148 100.772c4.1 2.4 4.1 6.283 0 8.673a16.234 16.234 0 01-14.864 0c-4.086-2.39-4.109-6.271 0-8.673a16.234 16.234 0 0114.864 0z" fill="#455a64"/><path data-name="Path 36636" d="M166.285 104.892a16.235 16.235 0 0114.864 0 6.832 6.832 0 012.458 2.31 6.738 6.738 0 01-2.458 2.311 16.3 16.3 0 01-14.864 0 2.315 2.315 0 110-4.621z" fill="#f5f5f5"/><path data-name="Path 36637" d="M187.294 64.681l-9.8 6.692 9.253-3.506a16.915 16.915 0 01-1.833 7.125s-6.123 2.959-9.447 6.089l8.149-2.561a39.082 39.082 0 01-1.32 8.969 53.916 53.916 0 01-4.541 9.9 30.752 30.752 0 01-2.242 3.312 2.3 2.3 0 01-.159.194c-1.536-1-3.084-2-4.712-2.959-.945-2.413-1.981-8.251-2.174-12.986-.706-18.142 13.635-27.5 24.823-30.195a32.642 32.642 0 00-5.997 9.926z" fill="#407bff"/><path data-name="Path 36638" d="M187.294 64.681l-9.8 6.692 9.253-3.506a16.915 16.915 0 01-1.833 7.125s-6.123 2.959-9.447 6.089l8.149-2.561a39.082 39.082 0 01-1.32 8.969 53.916 53.916 0 01-4.541 9.9 30.752 30.752 0 01-2.242 3.312 2.3 2.3 0 01-.159.194c-1.536-1-3.084-2-4.712-2.959-.945-2.413-1.981-8.251-2.174-12.986-.706-18.142 13.635-27.5 24.823-30.195a32.642 32.642 0 00-5.997 9.926z" opacity=".2"/><path data-name="Path 36639" d="M179.475 64.875a13.787 13.787 0 00-2.538 3.084 28.37 28.37 0 00-1.8 3.574 37.4 37.4 0 00-2.2 7.671 33.955 33.955 0 00.865 15.775.236.236 0 01-.034.171.294.294 0 01-.148.114.332.332 0 01-.182-.012.225.225 0 01-.125-.125 34.142 34.142 0 01-.615-15.968 36.889 36.889 0 012.31-7.705 25.8 25.8 0 011.855-3.563 14.056 14.056 0 012.612-3.016z" fill="#fafafa"/><path data-name="Path 36640" d="M143.874 70.042a139.417 139.417 0 019.287 13.954l9.39 1.81-6.988 1 3.551 6.021 9.253 2.219-7.284.956s1.787 7.136 6.886 10.232c2.811 1.718 4.211 2.014 5.1 1.217.615-.546.854-3.938 1.445-6.931a23.235 23.235 0 00-1.878-13.965 18.5 18.5 0 00-2.845-4.451c-6.614-7.862-19.475-11.948-25.917-12.062z" fill="#407bff"/><path data-name="Path 36641" d="M143.874 70.042a139.417 139.417 0 019.287 13.954l9.39 1.81-6.988 1 3.551 6.021 9.253 2.219-7.284.956s1.787 7.136 6.886 10.232c2.811 1.718 4.211 2.014 5.1 1.217.615-.546.854-3.938 1.445-6.931a23.235 23.235 0 00-1.878-13.965 18.5 18.5 0 00-2.845-4.451c-6.614-7.862-19.475-11.948-25.917-12.062z" fill="#fff" opacity=".3"/><path data-name="Path 36642" d="M170.654 89.641a28.845 28.845 0 011.935 7.865 85.215 85.215 0 01-.057 10.232 1.554 1.554 0 00.535-.307c.615-.546.865-3.938 1.457-6.931a23.263 23.263 0 00-1.889-13.965 18.811 18.811 0 00-2.834-4.45c-6.635-7.865-19.5-11.939-25.916-12.053 9.8 1.924 20.191 8.8 25.187 16.572a19.254 19.254 0 011.582 3.037z" opacity=".1"/><path data-name="Path 36643" d="M153.673 73.434a38.6 38.6 0 0112.838 9.469 25.278 25.278 0 014.291 6.806 23.963 23.963 0 011.81 7.8 31.3 31.3 0 00-2.242-7.614 29.3 29.3 0 00-4.12-6.749 34.5 34.5 0 00-5.77-5.463 45.2 45.2 0 00-6.772-4.222s-.046-.027-.035-.027z" fill="#fafafa"/><path data-name="Path 36644" d="M202.431 76.745a20.478 20.478 0 00-2.367 0 38.219 38.219 0 00-9.185 1.673c-1.115.353-2.219.774-3.312 1.2-.558.228-1.093.467-1.639.717a26.626 26.626 0 00-7.239 4.871 16.388 16.388 0 00-2.572 3.232l-.284.456c-.228.4-.433.774-.626 1.183a22.686 22.686 0 00-2.663 11.052c-.057 2.708.694 5.85 1.2 6.385a1.15 1.15 0 00.228.182c.763.546 1.98.318 4.348-.831 4.735-2.31 6.931-8.718 6.931-8.718l-6.317-1.445 8.286-1.172 3.608-5.008-6.112-1.48 8.365-.774a125.641 125.641 0 019.31-11.5z" fill="#407bff"/><path data-name="Path 36645" d="M200.03 76.708a37.462 37.462 0 00-9.151 1.719c-1.115.342-2.219.763-3.312 1.2-.558.216-1.093.455-1.639.706a26.884 26.884 0 00-7.239 4.871 16.388 16.388 0 00-2.572 3.232l-.284.456c-.228.4-.433.774-.626 1.183a22.686 22.686 0 00-2.663 11.052c-.057 2.708.694 5.85 1.2 6.385a1.837 1.837 0 00.228.193 1.462 1.462 0 00.49.217c-.33-4.222 2.311-14.75 5.679-18.95 3.505-4.359 11.564-10.528 22.3-12.224a18.819 18.819 0 00-2.411-.04z" opacity=".1"/><path data-name="Path 36646" d="M174.399 107.919a35.62 35.62 0 011.115-9.242 29.794 29.794 0 013.563-8.627 21.161 21.161 0 013-3.6 31.25 31.25 0 013.6-3 34.45 34.45 0 018.286-4.336 45.345 45.345 0 00-7.967 4.723 38.075 38.075 0 00-3.551 2.948 20.291 20.291 0 00-3.016 3.46 30 30 0 00-3.665 8.479 36.212 36.212 0 00-1.309 9.174z" fill="#fafafa"/><path data-name="Path 36647" d="M246.558 172.475h7.83l-1.263 7.637a1.282 1.282 0 01-.273.558 1.52 1.52 0 01-.5.387 4.164 4.164 0 01-1.889.455 4.236 4.236 0 01-1.889-.455 1.48 1.48 0 01-.49-.387 1.531 1.531 0 01-.285-.558z" fill="#fafafa"/><path data-name="Path 36648" d="M289.5 149.473h7.83l-1.252 7.625a1.443 1.443 0 01-.285.558 1.375 1.375 0 01-.489.387 4.245 4.245 0 01-3.779 0 1.375 1.375 0 01-.489-.387 1.443 1.443 0 01-.285-.558z" fill="#fafafa"/><path data-name="Path 36649" d="M188.626 140.038h7.819l-1.252 7.625a1.281 1.281 0 01-.273.558 1.412 1.412 0 01-.489.376 4.082 4.082 0 01-3.79 0 1.233 1.233 0 01-.49-.376 1.444 1.444 0 01-.285-.558z" fill="#fafafa"/><path data-name="Path 36650" d="M228.404 116.888h7.819l-1.241 7.637a1.524 1.524 0 01-.285.558 1.341 1.341 0 01-.489.375 4.15 4.15 0 01-3.779 0 1.333 1.333 0 01-.774-.933z" fill="#fafafa"/><path data-name="Path 36651" d="M182.4 99.94v36.432a8.372 8.372 0 003.767 6.59l3.084 1.787h.057a8.615 8.615 0 004.735.82l46.425 24.561a8.485 8.485 0 001.161 3.574 8.592 8.592 0 002.583 2.731h.046l3.084 1.764a1.4 1.4 0 00.285.159l.159.08h.046a8.578 8.578 0 005.884.262 3.855 3.855 0 00.66-.239c.034-.011.068-.034.1-.045a2.752 2.752 0 00.444-.228l44.7-25.722a8.435 8.435 0 003.79-6.567l.057-46.118V82.288a8.48 8.48 0 00-3.79-6.579l-49.965-28.784a7.781 7.781 0 00-3.676-.842 7.7 7.7 0 00-3.642.968l-3.084 1.775a10.182 10.182 0 00-2.845 2.823 10.293 10.293 0 00-1.525 3.71l-2.971 19.52-2.754-1.582a8.189 8.189 0 00-8.252 0L186.17 93.374a8.575 8.575 0 00-2.663 2.834 8.275 8.275 0 00-1.107 3.732z" fill="#afb5bd"/><path data-name="Path 36652" d="M239.308 48.826l3.073-1.775a7.877 7.877 0 017.33-.125l49.953 28.784c.216.136.455.307.387.25a8.622 8.622 0 013.358 5.691c-.273-1.946-1.855-2.652-3.745-1.548l-3.073 1.787a8.368 8.368 0 01-7.591 0l-49.692-28.659c-2.106-1.195-2.106-3.199 0-4.405z" fill="#bbc0cd"/><path data-name="Path 36653" d="M182.4 99.94v36.432a8.372 8.372 0 003.767 6.59l3.084 1.787h.057a8.135 8.135 0 004.45.842 7.624 7.624 0 003.073-.865l35.123-20.259a8.324 8.324 0 002.686-2.834 8.466 8.466 0 001.1-3.733V81.445a8.318 8.318 0 00-1.1-3.733 8.42 8.42 0 00-2.686-2.834l-2.743-1.582a8.189 8.189 0 00-8.252 0l-34.793 20.077a8.468 8.468 0 00-2.663 2.834 8.275 8.275 0 00-1.103 3.733z" fill="#a4aab1"/><path data-name="Path 36654" d="M229.2 73.285l2.754 1.594c2.094 1.207 2.094 3.175 0 4.37l-35.1 20.282a8.323 8.323 0 00-2.686 2.834 8.479 8.479 0 00-1.115 3.733v36.432c0 2.4-1.707 3.392-3.8 2.185l-3.084-1.787a8.389 8.389 0 01-3.79-6.556V99.94a8.515 8.515 0 013.79-6.579l34.793-20.032a8.031 8.031 0 014.109-1.126 8.176 8.176 0 014.129 1.082z" fill="#bbc0cd"/><path data-name="Path 36655" d="M193.053 106.11v36.421c0 2.413-1.707 3.4-3.8 2.2l-3.084-1.787a8.614 8.614 0 01-2.675-2.834 8.434 8.434 0 01-1.115-3.733V99.945a7.734 7.734 0 011.127-3.733l10.664 6.157a7.8 7.8 0 00-1.117 3.741z" fill="#a4aab1"/><path data-name="Path 36656" d="M194.639 145.592a8.874 8.874 0 001.389 2.083 15.784 15.784 0 003.562 2.492c13.339 7.705 22.968 13.248 36.307 20.953a4.153 4.153 0 001.889.444 4.235 4.235 0 001.9-.444l12.326-7.136 24.652-14.238a7.126 7.126 0 000-12.6l-13.976-8.047-10.664-6.169-11.6-6.67a8.368 8.368 0 00-7.592 0l-35.1 20.248a8.159 8.159 0 00-3.8 6.294 6.782 6.782 0 00.707 2.79z" fill="#90969d"/><path data-name="Path 36657" d="M235.893 162.903l-40.074-23.116c-1.036-.6-1.889-.114-1.889 1.093v3.858a4.209 4.209 0 001.889 3.278l40.074 23.116c1.047.6 1.889.114 1.889-1.093v-3.847a4.129 4.129 0 00-1.889-3.289z" fill="#a4aab1"/><path data-name="Path 36658" d="M240.422 97.449l36.273 20.919a8.349 8.349 0 012.675 2.823 8.522 8.522 0 011.115 3.745v7.705a8.436 8.436 0 01-3.79 6.567l-35.123 20.236a8.346 8.346 0 01-7.58 0l-36.273-20.919a8.35 8.35 0 01-2.675-2.823 8.521 8.521 0 01-1.115-3.733v-7.717a8.476 8.476 0 011.115-3.733 8.39 8.39 0 012.675-2.834l35.123-20.27a8.391 8.391 0 017.58.034z" fill="#a4aab1"/><path data-name="Path 36659" d="M237.782 143.919v16.435a7.587 7.587 0 003.79-.91l35.112-20.271a8.388 8.388 0 002.686-2.823 8.522 8.522 0 001.115-3.744v-7.705a8.79 8.79 0 00-1-3.54 8.449 8.449 0 00-2.413-2.777c1.7 1.218 1.548 3-.387 4.132l-35.112 20.27a7.853 7.853 0 01-3.791.933z" fill="#90969d"/><path data-name="Path 36660" d="M234.026 143.008l-36.273-20.919c-2.083-1.207-2.083-3.164 0-4.371l35.112-20.27a8.342 8.342 0 017.58 0l36.273 20.908c2.094 1.218 2.094 3.176 0 4.393l-35.112 20.259a8.342 8.342 0 01-7.58 0z" fill="#bbc0cd"/><path data-name="Path 36661" d="M208.099 145.012s2.925 9.367 2.811 12.964c-.125 3.744.683 5.053-.3 9.048-.2.876-.831 2.595-.99 3.312a.887.887 0 00-.057.455 1.013 1.013 0 00.136.444.986.986 0 00.319.33 1.072 1.072 0 00.432.171c1.594.467 4.53-2.31 6.089-5.543a98.586 98.586 0 004.188-11.37 5.136 5.136 0 00-.3-2.652 8.33 8.33 0 00-.626-1.423c-.41-1.662-.4-4.769-.671-6.931z" fill="#b16668"/><path data-name="Path 36662" d="M223.601 158.476a4 4 0 01.341 1.263c0 .762-1.912 3.073-2.652 3.892a5.983 5.983 0 00-1.537 4.12 10.338 10.338 0 01-3.05 6.419 16.383 16.383 0 01-8.57 4.632c-4.018.876-5.235-1.207-5.235-1.207s-1.07-1.992-.262-2.709 20.965-16.41 20.965-16.41z" fill="#263238"/><path data-name="Path 36663" d="M219.811 150.748c.114 0 .33 0 .6.4.114.148.672 1.969 1.184 2.948s1.935 2.868 2 4.382c-1.15 2.834-4.052 4.621-4.689 7.341s-.967 5.9-5.463 8.9-8.866 2.982-10.357 1.958-1.195-2.675 1.241-5.679c2.595-3.176 4.769-10.369 4.769-10.369a23.591 23.591 0 00.66-3.084 19.8 19.8 0 000-3.073 2.456 2.456 0 01.319-1.389 2.4 2.4 0 011.229-.706 10.643 10.643 0 012.231-.546 3.443 3.443 0 012.219.455c.421.353.854.694 1.309 1.013a2.085 2.085 0 001.081.194 2.052 2.052 0 001.024-.387 1.859 1.859 0 00.66-.82 1.79 1.79 0 00.068-1.036c-.017-.172-.054-.343-.085-.502z" fill="#455a64"/><path data-name="Path 36664" d="M216.147 172.248a6.766 6.766 0 00-2.379-2.743 6.836 6.836 0 00-3.46-1.1c-4.484-.353-6.226 1.787-7.022 3.084-.945 1.537-2.037 4.348-.25 5.338 1.912 1.059 4.245.979 8.047-.535a9.7 9.7 0 005.064-4.044z" fill="#fafafa"/><path data-name="Path 36665" d="M216.464 158.665a.454.454 0 01-.216.023.567.567 0 01-.194-.068c-.66-.41-4.257-1.479-6.556.319-.262-.25-.171-.649.228-1.184a8.227 8.227 0 016.84.125.3.3 0 01.125.114.4.4 0 01.068.159.433.433 0 010 .171.4.4 0 01-.068.159.507.507 0 01-.227.182z" fill="#fafafa"/><path data-name="Path 36666" d="M208.805 161.515a1.4 1.4 0 01.046-.648 1.541 1.541 0 01.33-.558 8.4 8.4 0 016.5.284.4.4 0 01.125.114.484.484 0 01.068.159.432.432 0 010 .171.4.4 0 01-.068.159.453.453 0 01-.626.148c-.65-.398-4.064-1.423-6.375.171z" fill="#fafafa"/><path data-name="Path 36667" d="M206.472 167.422a2.671 2.671 0 01.717-1.582 8.319 8.319 0 016.726.182.3.3 0 01.125.114.4.4 0 01.068.159.486.486 0 010 .182.48.48 0 01-.068.159.486.486 0 01-.228.171.646.646 0 01-.2.034.544.544 0 01-.2-.068c-.703-.432-4.675-1.604-6.94.649z" fill="#fafafa"/><path data-name="Path 36668" d="M214.7 164.087a.446.446 0 01-.2.046.416.416 0 01-.2-.046c-.66-.409-4.177-1.457-6.476.25a1.428 1.428 0 01.08-.694 1.649 1.649 0 01.4-.592 8.468 8.468 0 013.278-.523 8.566 8.566 0 013.232.808.43.43 0 01.136.182.387.387 0 01.034.228.464.464 0 01-.091.216.353.353 0 01-.182.136z" fill="#fafafa"/><path data-name="Path 36669" d="M203.205 155.801s-2.766 10.9-5.167 15.012-3.619 6.112-6.7 9.116c-.671.649-2.174 1.844-2.72 2.379a1.059 1.059 0 00-.3.376 1.164 1.164 0 00-.1.478 1.114 1.114 0 00.1.467 1.1 1.1 0 00.3.387c1.15 1.3 6.419 2.026 9.572.057s6.26-6.488 8.172-8.126c.728-.615 1.4-1.241 2.071-1.924s.524-1.343.649-2.117c.046-.387.08-1.423.08-1.423.558-1.833 1.912-4.632 2.641-6.419z" fill="#b16668"/><path data-name="Path 36670" d="M209.442 178.918a4.184 4.184 0 01-.25 1.343c-.353.694-3.175 2.026-4.245 2.493a6.292 6.292 0 00-3.289 3.209 10.772 10.772 0 01-5.748 4.712 17.11 17.11 0 01-10.186.558c-4.2-.979-4.416-3.483-4.416-3.483s-.114-2.356.967-2.686 27.167-6.146 27.167-6.146z" fill="#263238"/><path data-name="Path 36671" d="M209.295 169.941c.114.057.33.148.41.637a31.423 31.423 0 00-.193 3.323c.057 1.15.535 3.574-.068 5.042-2.356 2.174-5.907 2.572-7.705 4.848s-3.54 5.156-9.151 5.987-9.72-1.138-10.664-2.766.046-3.084 3.7-4.826c3.858-1.855 9.139-7.705 9.151-7.705a24.734 24.734 0 002-2.606 23.075 23.075 0 001.366-2.948 2.382 2.382 0 01.911-1.172 2.522 2.522 0 011.479-.114 10.572 10.572 0 012.356.478 3.632 3.632 0 011.889 1.423c.3.489.444 1.081.762 1.537a2.211 2.211 0 00.933.683 2.088 2.088 0 001.15.091 1.822 1.822 0 001-.467 1.8 1.8 0 00.546-.968c.048-.162.094-.321.128-.477z" fill="#455a64"/><path data-name="Path 36672" d="M196.262 188.603a7.047 7.047 0 00-3.813-6.226c-4.086-2.356-6.681-1.093-8.012-.228-1.582 1.024-3.847 3.2-2.629 4.928 1.343 1.866 3.6 2.834 7.865 3.084a10.163 10.163 0 006.589-1.558z" fill="#fafafa"/><path data-name="Path 36673" d="M202.602 175.901a.689.689 0 01-.216-.068.654.654 0 01-.159-.148c-.432-.683-3.369-3.312-6.351-2.641-.125-.342.137-.683.774-1.013a8.6 8.6 0 016.419 3.164.541.541 0 01.068.171.477.477 0 01-.011.182.57.57 0 01-.08.17.455.455 0 01-.137.114.491.491 0 01-.307.069z" fill="#fafafa"/><path data-name="Path 36674" d="M194.089 175.173a1.524 1.524 0 01.33-.592 1.489 1.489 0 01.558-.387 8.835 8.835 0 013.335.99 8.949 8.949 0 012.7 2.186.5.5 0 01.057.171.489.489 0 010 .182 1.143 1.143 0 01-.08.171.713.713 0 01-.148.114.425.425 0 01-.353.057.482.482 0 01-.307-.2c-.422-.667-3.201-3.159-6.092-2.692z" fill="#fafafa"/><path data-name="Path 36675" d="M189.24 179.725a2.75 2.75 0 011.377-1.183 8.615 8.615 0 016.283 3.187.539.539 0 01.068.171.5.5 0 010 .182.7.7 0 01-.08.159.491.491 0 01-.136.125.531.531 0 01-.3.057.34.34 0 01-.2-.068.336.336 0 01-.159-.148c-.479-.706-3.677-3.608-6.853-2.482z" fill="#fafafa"/><path data-name="Path 36676" d="M198.505 180.249a.341.341 0 01-.2-.068.4.4 0 01-.159-.148c-.444-.683-3.312-3.244-6.248-2.651a1.592 1.592 0 01.4-.626 1.8 1.8 0 01.626-.387 8.775 8.775 0 013.335.99 9 9 0 012.709 2.185.508.508 0 01.057.171.491.491 0 010 .182.574.574 0 01-.08.17.335.335 0 01-.136.114.464.464 0 01-.304.068z" fill="#fafafa"/><path data-name="Path 36677" d="M232.865 94.911c-4.814 2.937-21.363 10.722-28.272 16.116-1.992 1.536-2.8 3.756-2.754 8.718.057 6.727 3.38 29.9 3.38 29.9.615 1.354 2.083-.979 2.083-.979l27.691-29.637z" fill="#407bff"/><path data-name="Path 36678" d="M232.865 94.911c-4.814 2.937-21.363 10.722-28.272 16.116-1.992 1.536-2.8 3.756-2.754 8.718.057 6.727 3.38 29.9 3.38 29.9.615 1.354 2.083-.979 2.083-.979l27.691-29.637z" opacity=".3"/><path data-name="Path 36679" d="M206.904 142.656c6.157-4.336 27.372-32.255 27.372-32.255-2.367-2.368-3.084-9.936-3.084-9.936-1.241 2.788-.546 7.216.1 8.866-1.582 1.149-10.471 7.3-16.64 11.381a8.258 8.258 0 00-3.847 4.883c-1.704 6.146-3.924 15.786-3.901 17.061z" opacity=".3"/><path data-name="Path 36680" d="M232.866 94.911l31.6 9.845c-2.06 5.782-2.777 8.786-4.678 11.768s-4.018 6.157-12.725 9.572c-8.4 3.289-18.6 6.544-20.646 7.318-1.548.581-2.5 3.494-3.505 7.284-1.036 3.972-1.366 7.136-6.078 15.262-4.621 7.967-5.554 9.7-5.554 9.7s-6.1.114-9.822-3.756c0 0 7.876-27.987 9.481-33.006.888-2.8 1.024-4.3 4.837-7.148 3.278-2.447 17.732-11.563 17.732-11.563s-4.785-7.73-.642-15.276z" fill="#407bff"/><path data-name="Path 36681" d="M232.866 94.911l31.6 9.845c-2.06 5.782-2.777 8.786-4.678 11.768s-4.018 6.157-12.725 9.572c-8.4 3.289-18.6 6.544-20.646 7.318-1.548.581-2.5 3.494-3.505 7.284-1.036 3.972-1.366 7.136-6.078 15.262-4.621 7.967-5.554 9.7-5.554 9.7s-6.1.114-9.822-3.756c0 0 7.876-27.987 9.481-33.006.888-2.8 1.024-4.3 4.837-7.148 3.278-2.447 17.732-11.563 17.732-11.563s-4.785-7.73-.642-15.276z" opacity=".3"/><path data-name="Path 36682" d="M234.504 51.274c-.6-.364-.876-4.428-.228-7.318s-.694-3.608-1.354-2.7a4.642 4.642 0 00-.819 1.685 8.1 8.1 0 00-3.779 2.015c-1.616 1.6-3.528 3.574-2.971 7.864a11.023 11.023 0 01-.3 4.268c-2.31 6.306-10.516 14.193-12.372 22.6-1.707 7.705 4.325 8.468 9.595 6.157 6.055-2.72 17.664-13.021 17.664-13.021l5.031-16.878c-3.2 0-5.577.512-9.822 4.621-.717.683-3.665 3.21-3.665 3.21a35.276 35.276 0 013.016-5.918" fill="#b16668"/><path data-name="Path 36683" d="M227.205 74.856a37.1 37.1 0 01-3.084 5.588 11.036 11.036 0 003.949-4.621z" fill="#9a4a4d"/><path data-name="Path 36684" d="M245.67 55.94c-3.471-.318-6.271.217-8.991 2.846-2.5 2.424-5.19 4.985-5.19 4.985-1.8 4.177-3.084 8.229-4.28 11.086a15.126 15.126 0 003.221 6.066l14.045-11.291z" fill="#fafafa"/><path data-name="Path 36685" d="M232.672 55.952a2.6 2.6 0 00-.455-3.039l2.311-1.548v-.091l-9.242-.421a11.539 11.539 0 00.08 1.98 13.111 13.111 0 01.08 2l1.2.717a.881.881 0 00.865 0l3.892-2.015c1.326.573 1.269 2.417 1.269 2.417z" fill="#9a4a4d"/><path data-name="Path 36686" d="M225.217 43.068l16.184-7.637a.9.9 0 01.455-.114.933.933 0 01.455.114c.193.137 1.024.649 1.263.774a.95.95 0 01.307.33.979.979 0 01.1.444l.524 8.377a1.983 1.983 0 01-.307 1.07 2 2 0 01-.808.762l-16.185 7.637a.885.885 0 01-.421.1.965.965 0 01-.432-.1 62.16 62.16 0 01-1.366-.842.841.841 0 01-.262-.307.971.971 0 01-.091-.4c-.137-2.106-.4-6.271-.535-8.377a1.983 1.983 0 01.307-1.07 2.168 2.168 0 01.812-.761z" fill="#37474f"/><path data-name="Path 36687" d="M243.382 45.549a1.081 1.081 0 01-.159.523 1.051 1.051 0 01-.387.387l-15.319 7.239v.364l-.626-8.912a1.223 1.223 0 01.159-.524 1.147 1.147 0 01.4-.376l15.65-7.42-.341.159z" fill="#407bff"/><path data-name="Path 36688" d="M243.382 45.549a1.081 1.081 0 01-.159.523 1.051 1.051 0 01-.387.387l-15.319 7.239v.364l-.626-8.912a1.223 1.223 0 01.159-.524 1.147 1.147 0 01.4-.376l15.65-7.42-.341.159z" fill="#fff" opacity=".75"/><path data-name="Path 36689" d="M243.769 45.753a1.1 1.1 0 01-.171.524 1.051 1.051 0 01-.387.387l-15.672 7.409v-.376l15.319-7.239a1.05 1.05 0 00.387-.387.973.973 0 00.159-.523L242.812 37l.33-.159z" fill="#263238"/><path data-name="Path 36690" d="M226.402 54.858h-.046c-.228-.136-1.127-.694-1.366-.842a.877.877 0 01-.262-.319.92.92 0 01-.091-.387c-.137-2.106-.4-6.283-.535-8.377a2.044 2.044 0 01.569-1.423l1.32.774a1.948 1.948 0 00-.569 1.423l.523 8.388a.89.89 0 00.114.444 1.012 1.012 0 00.343.319z" fill="#263238"/><path data-name="Path 36691" d="M243.574 36.205a1.024 1.024 0 00-.41-.091 1.077 1.077 0 00-.421.091l-16.185 7.648a1.7 1.7 0 00-.546.4l-1.32-.774a1.815 1.815 0 01.558-.41l16.173-7.637a.97.97 0 01.911 0 12.02 12.02 0 001.24.773z" fill="#455a64"/><path data-name="Path 36692" d="M226.538 49.19a.661.661 0 00-.239.228.634.634 0 00-.08.319.225.225 0 00.023.125.174.174 0 00.091.091.246.246 0 00.25 0 .652.652 0 00.228-.239.612.612 0 00.091-.319.3.3 0 00-.034-.125.231.231 0 00-.091-.091.158.158 0 00-.125-.023.22.22 0 00-.114.034z" opacity=".35"/><path data-name="Path 36693" d="M234.789 51.273c.489-.4.671-1.662 1.491-2.788.956-1.309 3.164-.968 2.47.091s-.922 2-1.423 4.7-1.582 3.084-2.777 4.621v-6.476z" fill="#b16668"/><path data-name="Path 36694" d="M257.074 57.226c2.652.706 11.245 4.1 11.245 4.1 1.855 1.446 1.07 4.621 1.047 8.263-.717 26.428-5.3 38.208-5.3 38.208-10.334 2.265-29.216-4.314-32.733-12.2 3.153-4.8 5.281-11.973 5.736-26.064.33-10.448 5.076-13.612 8.161-13.59a51.23 51.23 0 0111.844 1.283z" fill="#fafafa"/><path data-name="Path 36695" d="M243.895 35.487a3.66 3.66 0 000-1.855c-.182-.649-.432-1.286-.592-1.946-.2-.876-.444-1.764-.706-2.64a12.532 12.532 0 01-.865-3.756 2.295 2.295 0 01.637-1.673 2.359 2.359 0 011.07-.489 2.326 2.326 0 011.184.114 6.877 6.877 0 012.037 1.218 4.246 4.246 0 01.774-2.652 2.528 2.528 0 011.1-.842 2.585 2.585 0 011.377-.1 6.576 6.576 0 012.151 1.593 11.256 11.256 0 004.518 1.81 11.278 11.278 0 014.587 1.958 7.163 7.163 0 012.709 5.395c0 .763-.319 2.675-.444 3.688-.193 1.537-.353 3.084-.6 4.564-1.264 7.705-3.779 13.3-11.552 12.736-2.959-.228-7.091-2.06-7.865-5.281a11.884 11.884 0 01-.148-1.684c-.08-1.138-.1-2.311-.08-3.4a40.638 40.638 0 01.708-6.758z" fill="#263238"/><path data-name="Path 36696" d="M263.915 31.641a2.855 2.855 0 012.31 2c.683 1.7 1 4.37-.66 8.468a35.133 35.133 0 01-4.1 7.341c-.683 1.161-1.775 3.346-1.775 3.346l.489-5.11.432-3.551s-2.185-.5-2.823-4.052c-.717-3.995.046-4.5.046-4.5z" fill="#263238"/><path data-name="Path 36697" d="M260.431 43.716a.817.817 0 00.432.08.925.925 0 00.41-.136c.706-.421 1.036-1.309 1.639-1.844a2.548 2.548 0 014.2 1c.99 2.538-1.5 5.884-3.323 6.578a2.745 2.745 0 01-3.642-1.673l-1.036 10.79c-3.084 4.712-6.385 5.087-9.549 4.871s-2.914-3.164-.888-5.179l.262-3.517a20.371 20.371 0 01-4.325-.091c-2.311-.546-3.426-2.4-3.95-5.008a34.162 34.162 0 01-.375-9.139 38.377 38.377 0 011.776-8.3s1.343-1.218 5.235-1.275c2.743 0 6.214-.228 7.66 1.491a3.867 3.867 0 00.922 2.072 4.1 4.1 0 001.923 1.218c-.831 5.513 2.163 7.869 2.629 8.062z" fill="#b16668"/><path data-name="Path 36698" d="M255.048 32.814c-.569-1.047-2.595-1.537-3.767-1.366a27.9 27.9 0 00-4.746 1.457 11.136 11.136 0 01-3.562.592 6.384 6.384 0 01-3.312-.842 3.882 3.882 0 01-1.081-1.309 3.969 3.969 0 01-.41-1.65 3.892 3.892 0 01.33-1.65 3.694 3.694 0 011-1.354 1.565 1.565 0 00.228.74 1.512 1.512 0 00.546.558 4.689 4.689 0 001.457.546 2.774 2.774 0 01-.842-1.218 2.855 2.855 0 01-.125-1.479 3.66 3.66 0 01.808-1.525 3.846 3.846 0 011.4-1.013c.933-.262 2-.535 4.052 1.161s9.014 2.706 8.024 8.352z" fill="#263238"/><path data-name="Path 36699" d="M248.936 54.654s5.327-.672 7.239-1.537a6.129 6.129 0 002.72-2.322 8.188 8.188 0 01-1.662 2.857c-1.468 1.616-8.4 2.368-8.4 2.368z" fill="#9a4a4d"/><path data-name="Path 36707" d="M251.133 176.049v-36.432a8.535 8.535 0 013.8-6.579l35.157-20.281a2.512 2.512 0 001.241-2.174 2.5 2.5 0 00-.33-1.24 2.526 2.526 0 00-.911-.922l-.865-.489 2.982-19.52a10.106 10.106 0 014.37-6.533l3.084-1.787c2.083-1.207 3.79-.217 3.79 2.2v17.527l-.08 46.129a8.331 8.331 0 01-1.115 3.733 8.492 8.492 0 01-2.675 2.834l-44.7 25.722c-2.029 1.203-3.748.214-3.748-2.188z" fill="#90969d"/><path data-name="Path 36708" d="M240.469 133.448v36.684a8.485 8.485 0 001.161 3.574 8.592 8.592 0 002.583 2.731h.046l3.084 1.764a1.4 1.4 0 00.285.159l.159.08h.046a3 3 0 00.3.114 8.857 8.857 0 005.588.148c.216-.068.444-.148.66-.239-1.832.774-3.244-.273-3.244-2.458v-36.387a8.432 8.432 0 013.79-6.579l6.886-3.972 28.272-16.31a2.527 2.527 0 00.911-.922 2.446 2.446 0 000-2.493 2.527 2.527 0 00-.911-.922l-3.13-1.81a8.461 8.461 0 00-7.592 0l-28.226 16.321-6.863 3.972a8.241 8.241 0 00-2.675 2.823 8.442 8.442 0 00-1.13 3.722z" fill="#bbc0cd"/><path data-name="Path 36709" d="M251.133 139.617v36.421c0 2.185 1.423 3.21 3.255 2.458a6.787 6.787 0 01-.672.239 8.748 8.748 0 01-5.577-.159 1.328 1.328 0 01-.3-.114h-.046l-.171-.08a1.723 1.723 0 01-.285-.148l-3.073-1.776h-.046a8.429 8.429 0 01-2.583-2.72 8.534 8.534 0 01-1.161-3.585v-36.708a7.723 7.723 0 011.115-3.733l10.664 6.157a7.866 7.866 0 00-1.12 3.748z" fill="#a4aab1"/><path data-name="Path 36710" d="M282.466 98.267c-1.024-8.024-1.878-12.2-2.937-17.584-2.458-12.5-1.878-16.093-10.915-18.438 0 0-3.278 2.879-3.414 10.278-.1 5.588 1.548 8.661 1.548 8.661l3.847 18.495c-3.335 3.073-11.894 9.8-13.977 10.9-2.811 1.491-5.93 2.072-8.934 3.073-2 .694-3.858 1.548-5.816 2.367a.688.688 0 00-.3.159.564.564 0 00-.148.3.579.579 0 00.034.341 1.078 1.078 0 00.444.512 3.525 3.525 0 001.571.592 3.742 3.742 0 001.662-.148 10.217 10.217 0 012.788-.66c.2 0 .432.057.353.319a2.176 2.176 0 01-.33.49 7.484 7.484 0 01-3.039 1.468 12.485 12.485 0 01-3.244.467 12.713 12.713 0 00-2.629.171 2.131 2.131 0 00-.774.33c-1.195.933.706 1.65 1.093 2.311.193.341.546.945.762 1.263a2.479 2.479 0 00.933.58 11.848 11.848 0 011.241.9 6.1 6.1 0 003.414.888 19.367 19.367 0 003.027-.319 12.933 12.933 0 005.873-2.276 19.328 19.328 0 002-1.866c.535-.558 1.07-1.138 1.639-1.673a35.939 35.939 0 012.982-2.265 167.038 167.038 0 0018.757-10.972c3.796-2.654 2.944-5.147 2.489-8.664z" fill="#b16668"/><path data-name="Path 36711" d="M268.319 61.289c6.408 2.083 8.149 4.78 8.752 6.829.888 2.959 1.548 6.316 2.606 11.313 1.548 7.455 1.821 10.4 1.821 10.4s-3.528 2.857-12.7 2.743l-3.084-12.121s-4.463-10.614 2.605-19.164z" fill="#fafafa"/><path data-name="Path 36713" d="M216.487 38.936v-19.77a1.227 1.227 0 00-.171-.558 1.2 1.2 0 00-.4-.433l-28.169-16.23c-.307-.182-.569-.034-.569.33v19.713a1.23 1.23 0 00.171.558 1.09 1.09 0 00.4.421l28.169 16.276c.319.184.569.046.569-.307z" fill="#407bff"/><path data-name="Path 36714" d="M216.487 38.936v-19.77a1.227 1.227 0 00-.171-.558 1.2 1.2 0 00-.4-.433l-28.169-16.23c-.307-.182-.569-.034-.569.33v19.713a1.23 1.23 0 00.171.558 1.09 1.09 0 00.4.421l28.169 16.276c.319.184.569.046.569-.307z" fill="#fcbf02"/><path data-name="Path 36715" d="M215.918 39.244a1.269 1.269 0 00.569.137 1.233 1.233 0 00.569-.137l2.026-1.161a1.087 1.087 0 00.4-.421 1.228 1.228 0 00.171-.558V17.357a1.023 1.023 0 00-.182-.569l-3.164 1.81a1.231 1.231 0 01.171.569v19.77c.009.318-.23.501-.56.307z" opacity=".2"/><path data-name="Path 36719" d="M216.488 24.96l4.814 6.01a.51.51 0 01.148.25.608.608 0 01-.023.285.484.484 0 01-.171.228.43.43 0 01-.273.1l-4.5.489z" fill="#fcbf02"/><path data-name="Path 36720" d="M209.715 21.989c0 .762-.558 1.036-1.229.626l-15.65-9.014a2.721 2.721 0 01-.865-.9 2.776 2.776 0 01-.376-1.195c0-.774.558-1.036 1.241-.626l15.65 9.026a2.768 2.768 0 011.229 2.083z" fill="#fafafa"/><path data-name="Path 36721" d="M213.221 30.081c0 .763-.558 1.025-1.229.626l-19.155-11.029a2.871 2.871 0 01-.865-.911 2.777 2.777 0 01-.376-1.2c0-.762.558-1.024 1.241-.626l19.132 11.04a2.651 2.651 0 01.876.9 2.776 2.776 0 01.376 1.2z" fill="#fafafa"/><path data-name="Path 36724" d="M112.278 17.562a4.9 4.9 0 00-.66-2.185 4.991 4.991 0 00-1.571-1.662l-1.823-1.047a4.843 4.843 0 00-4.469 0l-35.554 20.5a4.942 4.942 0 00-2.234 3.858V58.81a4.941 4.941 0 002.234 3.858l1.819 1.058a5.03 5.03 0 004.469 0l15.134-8.809 3.2 5.531a.49.49 0 00.193.182.525.525 0 00.263.057.5.5 0 00.249-.1.461.461 0 00.158-.216l3.375-9.754 12.966-7.409a4.937 4.937 0 002.242-3.858z" fill="#fcbf02"/><path data-name="Path 36725" d="M65.967 58.828a4.941 4.941 0 002.235 3.847l1.818 1.058a5.2 5.2 0 002.024.523 5.1 5.1 0 002.061-.353c-1.048.41-1.849-.193-1.849-1.468V40.662a4.5 4.5 0 01.655-2.2l-6.287-3.642a4.555 4.555 0 00-.656 2.208z" opacity=".2"/><path data-name="Path 36726" d="M112.196 16.936c-.273-.956-1.127-1.252-2.162-.66L74.518 36.797a4.5 4.5 0 00-1.541 1.673l-6.28-3.631a4.387 4.387 0 011.541-1.662l35.539-20.532a4.932 4.932 0 014.469 0l1.822 1.058a4.786 4.786 0 011.388 1.4 5.056 5.056 0 01.74 1.833z" fill="#fff" opacity=".4"/><path data-name="Path 36727" d="M81.332 42.885a6.632 6.632 0 00-2.11 2.231 6.526 6.526 0 00-.872 2.936c0 1.9 1.333 2.675 2.982 1.719a6.607 6.607 0 002.11-2.231 6.512 6.512 0 00.872-2.937c-.004-1.899-1.317-2.673-2.982-1.718z" fill="#fafafa"/><path data-name="Path 36728" d="M92.321 36.523a6.615 6.615 0 00-2.982 5.167c0 1.89 1.341 2.663 2.982 1.719a6.517 6.517 0 002.123-2.219 6.6 6.6 0 00.882-2.948c0-1.901-1.356-2.675-3.005-1.719z" fill="#fafafa"/><path data-name="Path 36729" d="M103.317 30.161a6.615 6.615 0 00-2.982 5.167c0 1.9 1.333 2.675 2.982 1.73a6.623 6.623 0 002.982-5.167c0-1.901-1.334-2.679-2.982-1.73z" fill="#fafafa"/><path data-name="Path 36718" d="M221.2 31.754l3.084-1.752a.771.771 0 00.171-.159.558.558 0 00.08-.216.571.571 0 00-.023-.239.667.667 0 00-.114-.194l-4.814-6.009-3.084 1.764 4.8 6.01a.459.459 0 01.114.2.473.473 0 01.023.217.5.5 0 01-.08.216.358.358 0 01-.157.162z" fill="#fff" opacity=".4"/></g></svg>